
<?xml version="1.0" encoding="utf-8"?>
<!-- Generator: Adobe Illustrator 25.0.0, SVG Export Plug-In . SVG Version: 6.00 Build 0)  -->
<svg version="1.1" id="_x37_148f5f1-8839-4464-a941-0c8a08d3460a"
	 xmlns="http://www.w3.org/2000/svg" xmlns:xlink="http://www.w3.org/1999/xlink" x="0px" y="0px" viewBox="0 0 678.3 733"
	 style="enable-background:new 0 0 678.3 733;" xml:space="preserve">
<style type="text/css">
	.st0{fill:#E3EFFF;}
	.st1{fill:#E8F2FA;}
	.st2{opacity:0.3;}
	.st3{fill:#75A5EA;}
	.st4{fill:#BBD8F9;}
	.st5{opacity:0.5;}
	.st6{fill:#97C8F7;}
	.st7{fill:#86ABF7;}
	.st8{opacity:0.2;}
	.st9{fill:#89B4FD;}
	.st10{fill:url(#SVGID_1_);}
	.st11{fill:url(#SVGID_2_);}
	.st12{fill:url(#SVGID_3_);}
	.st13{fill:url(#SVGID_4_);}
	.st14{fill:url(#SVGID_5_);}
	.st15{fill:url(#SVGID_6_);}
	.st16{fill:#0F9EEA;}
	.st17{fill:#006CBD;}
	.st18{fill:#659FFF;}
	.st19{fill:#016BBD;}
	.st20{fill:url(#SVGID_7_);}
	.st21{opacity:0.75;fill:#6A9AF4;enable-background:new    ;}
	.st22{fill:#0137A3;}
	.st23{opacity:0.3;fill:#FFFFFF;enable-background:new    ;}
	.st24{fill:url(#SVGID_8_);}
	.st25{fill:url(#SVGID_9_);}
	.st26{fill:url(#SVGID_10_);}
	.st27{fill:url(#SVGID_11_);}
	.st28{fill:url(#SVGID_12_);}
	.st29{fill:url(#SVGID_13_);}
	.st30{fill:url(#SVGID_14_);}
	.st31{fill:url(#SVGID_15_);}
	.st32{fill:url(#SVGID_16_);}
	.st33{fill:url(#SVGID_17_);}
	.st34{fill:url(#SVGID_18_);}
	.st35{fill:url(#SVGID_19_);}
	.st36{fill:url(#SVGID_20_);}
	.st37{fill:url(#SVGID_21_);}
	.st38{opacity:0.3;fill:url(#SVGID_22_);enable-background:new    ;}
	.st39{opacity:0.3;fill:url(#SVGID_23_);enable-background:new    ;}
	.st40{fill:#FFAE73;}
	.st41{fill:#1E3865;}
	.st42{fill:#B7B7B7;}
	.st43{fill:#F9F9F9;}
	.st44{fill:#070707;}
	.st45{fill:#F9924F;}
	.st46{fill:#2CFF3B;}
	.st47{fill:#0EA505;}
	.st48{fill:#FFFFFF;}
	.st49{fill:#F40B00;}
	.st50{fill:#062646;}
	.st51{fill:#4C4C4C;}
	.st52{fill:#686868;}
	.st53{fill:#F43E14;}
	.st54{fill:#FFA05E;}
</style>
<path class="st0" d="M591.6,295.8h0.9l0.7,4.4h2.8l0.1,0.8h-3.7L591.6,295.8z"/>
<path class="st0" d="M596.4,299.1c-0.2-1.1,0.6-2.1,1.8-2.1s2.3,0.9,2.4,2.1c0.2,1.1-0.6,2.1-1.8,2.1
	C597.6,301.1,596.5,300.2,596.4,299.1z M599.7,299.1c-0.1-0.7-0.7-1.3-1.4-1.3s-1.1,0.6-1,1.3c0.1,0.7,0.7,1.3,1.4,1.3
	S599.8,299.8,599.7,299.1z"/>
<path class="st0" d="M604.2,301.1l-0.1-0.5c-0.2,0.3-0.6,0.6-1.2,0.6c-0.7,0-1.5-0.4-1.6-1.2c-0.1-0.9,0.5-1.3,1.4-1.3
	c0.5,0,0.8,0.1,1.1,0.2v-0.1c-0.1-0.5-0.5-0.8-1.1-0.8c-0.4,0-0.8,0.1-1.1,0.2l-0.4-0.7c0.4-0.2,0.8-0.3,1.5-0.3
	c1.2,0,1.8,0.6,2,1.7l0.4,2.3h-0.9V301.1z M604,299.4c-0.2-0.1-0.6-0.2-0.9-0.2c-0.6,0-0.9,0.2-0.8,0.6c0.1,0.4,0.4,0.6,0.9,0.6
	c0.6,0,1-0.3,0.9-0.8L604,299.4z"/>
<g>
	<g>
		<path class="st1" d="M29.7,563.7c0,0-47.6-72.6,4.2-158s121.4-42.5,118-141.9c-3.4-99.4,143.8-109.1,195.8-80.2
			c52,28.8,97.9,12.3,160.1,14.3c100.8,3.3,129,103.6,101,152.4c-39.5,69.2,124.3,77.4,30,213.4H29.7z"/>
	</g>
	<g class="st2">
		<path class="st3" d="M72.8,444.4c-4.8-17.3,23.4-27.5,23.4-27.5s32.7,16.1,38.1,13.8c5.4-2.3-25.3-19.2-25.3-19.2
			c9.2-6.6,40.9-9.2,40.9-9.2s16.5,31.4,21.1,27.9s-16-27.1-16-27.1c11.1-2.7,26.3,3.1,26.3,3.1c21.5,11.4,5.7,38.1,5.7,38.1
			s5.9,10.8,19.7,19.1l0,0c0,0,2.8,1.4,6.6,4.3l-2.6,1.5c-0.6-0.6-1.2-1.1-1.9-1.6l0,0l0,0c-0.4-0.3-1-0.7-1.7-1.2l0,0l0,0
			c-1.7-1.1-2.9-1.9-3.7-2.5l0,0c-5.2-3.4-12.2-7.7-15.3-7.7c0,0,0-0.6-0.1-1.5c0,0.5,0.1,1,0.1,1.5c1.1,11.9-19.9,26.3-33.6,30.9
			c-13.7,4.6-10.4-1.9-7.1-11.3c3.3-9.4,18-16,20.8-20.5c2.8-4.6-4.5-3.3-12.2,2.1c-7.8,5.4-7.1,15.9-19.5,24.8s-37-9.8-37-9.8
			c10.8-2.5,24.1-17,22.9-20.5c-1.2-3.5-25.2,10.9-29.5,12.2C88.5,465.3,77.5,461.7,72.8,444.4z"/>
	</g>
	<g>
		<path class="st4" d="M556.8,540.4c17.5-16.9-8.2-47.8-8.2-47.8s-49.1-3.6-53.8-9.9c-4.7-6.3,42.6-5.1,42.6-5.1
			c-6.1-13.9-41.2-38.6-41.2-38.6s-40.8,25.3-43.8,18c-2.9-7.3,37.3-20.5,37.3-20.5c-11-10.7-32.7-14.3-32.7-14.3
			c-32.8-1.4-32.9,40.4-32.9,40.4s-14.3,8.5-36.1,8.7l0,0c0,0-4.2-0.3-10.6,0.5l1.9,3.5c1.1-0.2,2.2-0.4,3.3-0.6l0,0l0,0
			c0.7-0.1,1.6-0.1,2.8-0.2l0,0l0,0c2.7-0.1,4.6-0.2,6-0.4l0,0c8.4-0.4,19.5-0.6,23,1.5c0,0,0.3-0.7,1.2-1.6
			c-0.4,0.5-0.8,1.1-1.2,1.6c-9.5,13,5,44,17.7,58.8c12.7,14.7,13.4,4.9,16-8.3c2.7-13.2-9.8-30.8-9.9-38s7.4-0.8,12.8,10.8
			c5.3,11.5-2.7,23.2,5.5,42.1c8.3,18.8,49.8,13.8,49.8,13.8c-10.8-10.2-16.3-36.2-12.4-39.4c3.8-3.2,21.7,29.8,25.8,34.2
			C524,554,539.3,557.2,556.8,540.4z"/>
	</g>
	<g>
		<g class="st5">
			<path class="st6" d="M167.4,377.5c0,0-22.3-23.1-47-28.5c-3.3-0.7-5.6,3.1-3.6,5.7l0.1,0.1C120.6,359.2,149.8,367.4,167.4,377.5z
				"/>
		</g>
		<g class="st5">
			<path class="st6" d="M174.5,383.6c0,0-37.2-22-70.2-19.3c-2,0.2-3.6,1.9-3.5,3.9c0.1,1.3,0.8,2.8,3.1,4.4
				C109.9,376.8,149.1,377,174.5,383.6z"/>
		</g>
	</g>
	<g class="st5">
		<g class="st5">
			<path class="st7" d="M504.5,441.3c0,0,5.3-32.9,23.2-52c2.4-2.5,6.7-0.7,6.4,2.8c0,0.1,0,0.1,0,0.2
				C533.6,398.1,513.5,422.2,504.5,441.3z"/>
		</g>
		<g class="st5">
			<path class="st7" d="M502,450.6c0,0,18.7-40.7,48.5-57.9c1.8-1,4.2-0.5,5.3,1.2c0.7,1.1,1,2.9,0,5.6
				C553.3,406.8,519.9,430,502,450.6z"/>
		</g>
	</g>
	<g class="st8">
		<path class="st9" d="M312.8,334.3l13-1.4c1.1-0.1,2.1,0.4,2.7,1.3c0.7,1.2,1.6,2.3,2.4,3.4c1.6,2.1,3.3,4,5.1,5.7
			c0.9,0.8,1.1,2,0.7,3.1l-5,12.6c-0.5,1.3,0,2.9,1.4,3.5l11.2,5.5c1.3,0.6,2.8,0.2,3.6-1l6.8-10.3c0.6-1,1.9-1.5,3.1-1.2
			c5.1,1.4,10.5,1.9,15.9,1.6c1.3-0.1,2.5,0.8,2.9,2l2.3,7.3c0.4,1.4,1.9,2.2,3.3,2l12.2-2.4c0.3,0,0.5-0.1,0.7-0.2
			c1.1-0.5,1.7-1.6,1.6-2.8l-1.1-9.7l-0.3-2.4c2-1.1,4-2.4,5.9-3.9c2.6-1.9,4.9-4.1,6.9-6.3c0.8-0.9,2-1.2,3.1-0.7l10.2,4
			c1.4,0.5,3-0.1,3.7-1.4l4.3-8.5l1.2-2.4c0.7-1.3,0.2-3-1-3.8l-8.9-5.7c-1-0.6-1.5-1.9-1.2-3c0.8-3.5,1.3-7,1.4-10.6
			c0-0.3,0-0.6,0-0.9c0-0.1,0-0.2,0-0.3c0.1-1.1,0.9-2.1,2-2.4l11.9-3.7c0.1,0,0.3-0.1,0.4-0.2c1.2-0.6,1.8-1.8,1.6-3.1l-2.4-12.1
			c-0.3-1.5-1.6-2.4-3.1-2.3l-13.6,1.5c-1.2,0.1-2.3-0.5-2.8-1.5c-1.2-2.2-2.6-4.4-4.2-6.5c-0.8-1.1-1.7-2.2-2.7-3.2
			c-0.7-0.8-1-2-0.5-3l4.8-12.1c0.5-1.3,0-2.9-1.4-3.5l-11.1-5.5c-1.3-0.7-3-0.2-3.8,1l-5.4,8.3c-0.7,1.1-2.1,1.6-3.4,1.2
			c-4.9-1.7-10.1-2.6-15.3-2.8c-1.2,0-2.3-0.8-2.7-2l-3.3-10.6c-0.4-1.4-1.9-2.3-3.4-2l-12.1,2.4c-1.5,0.3-2.4,1.6-2.3,3.1l0.1,0.6
			l1.2,11.2c0.1,1.2-0.5,2.3-1.6,2.9l0,0c-2.6,1.3-5.1,2.9-7.5,4.7c-1.3,1-2.5,2-3.7,3.1c-0.8,0.8-2,1-3,0.6l-10.4-4.1
			c-1.4-0.6-3,0.1-3.7,1.4l-5.5,11c-0.2,0.3-0.2,0.6-0.3,1c-0.1,1,0.4,2.1,1.3,2.7l7.1,4.5c0.9,0.6,1.4,1.5,1.3,2.5
			c0,0.3-0.1,0.5-0.1,0.8c-2.2,6.3-3.1,12.9-2.6,19.6c0.1,1.1-0.5,2.2-1.5,2.7c-0.1,0.1-0.3,0.1-0.5,0.2l-9.6,3
			c-1.4,0.4-2.2,1.8-2,3.3l0.1,0.3l2.3,11.8C309.9,333.4,311.3,334.4,312.8,334.3z M396.2,297.8c0.7,1.8,1.3,3.8,1.7,6
			c0.8,4.1-0.1,10.5-1.9,14.2c-0.2,0.4-0.4,0.8-0.6,1.2c-12.8,23.4-46.1,18.7-51.6-7.8c-0.7-3.5-0.2-8.5,1-12.4
			c0.3-0.9,0.6-1.7,1-2.4c1.7-3.4,3.8-6.2,6.2-8.5C365.8,275,388.7,279.4,396.2,297.8z"/>
	</g>
	
		<linearGradient id="SVGID_1_" gradientUnits="userSpaceOnUse" x1="280.083" y1="307.2868" x2="364.8434" y2="307.2868" gradientTransform="matrix(1 0 0 -1 0 734)">
		<stop  offset="3.595278e-03" style="stop-color:#242063"/>
		<stop  offset="1" style="stop-color:#40447E"/>
	</linearGradient>
	<path class="st10" d="M296.1,327.5l-15.9,188.7c0,0-1.7,11.4,6.8,11.5c14,0,69.6,0,69.6,0s-10.5-2.4-10.4-7.7
		c0.2-6.3,18.5-194.2,18.5-194.2L296.1,327.5z"/>
	
		<linearGradient id="SVGID_2_" gradientUnits="userSpaceOnUse" x1="284.7218" y1="310.7243" x2="369.5218" y2="310.7243" gradientTransform="matrix(1 0 0 -1 0 734)">
		<stop  offset="2.663895e-07" style="stop-color:#B1EDFF"/>
		<stop  offset="0.2076" style="stop-color:#89DCF9"/>
		<stop  offset="0.4439" style="stop-color:#63CCF4"/>
		<stop  offset="0.6621" style="stop-color:#47C1F0"/>
		<stop  offset="0.8532" style="stop-color:#36B9EE"/>
		<stop  offset="0.9964" style="stop-color:#30B7ED"/>
	</linearGradient>
	<path class="st11" d="M361.9,524.3c-2.8,0-56.6,0.1-70.2-0.1c-5.9-0.1-7-5.3-7-8.6c0-1.6,0.2-2.8,0.2-2.8l0.4-4.9l1.1-12.5l0.9-11
		l1.2-14.2l1-12l11.2-134.1l68.8-1.8c0,0-7.7,78.6-13.2,135.9c-0.6,6.4-1.2,12.5-1.7,18.2c-0.2,1.8-0.3,3.6-0.5,5.3
		c-0.5,5.4-1,10.4-1.4,14.8c-0.2,2.3-0.4,4.5-0.6,6.4c-0.7,7.7-1.1,12.6-1.1,13.6c0,0.5,0,1.1,0.1,1.5
		C352.2,524,360.9,524.3,361.9,524.3z"/>
	
		<linearGradient id="SVGID_3_" gradientUnits="userSpaceOnUse" x1="129.1218" y1="384.7868" x2="525.6218" y2="384.7868" gradientTransform="matrix(1 0 0 -1 0 734)">
		<stop  offset="2.663895e-07" style="stop-color:#B1EDFF"/>
		<stop  offset="0.2076" style="stop-color:#89DCF9"/>
		<stop  offset="0.4439" style="stop-color:#63CCF4"/>
		<stop  offset="0.6621" style="stop-color:#47C1F0"/>
		<stop  offset="0.8532" style="stop-color:#36B9EE"/>
		<stop  offset="0.9964" style="stop-color:#30B7ED"/>
	</linearGradient>
	<polygon class="st12" points="129.1,224.8 167.7,380.1 173,401.3 191,473.7 525.6,473.7 459.2,224.8 	"/>
	
		<linearGradient id="SVGID_4_" gradientUnits="userSpaceOnUse" x1="123.7218" y1="382.0868" x2="191.0218" y2="382.0868" gradientTransform="matrix(1 0 0 -1 0 734)">
		<stop  offset="0" style="stop-color:#016BBD"/>
		<stop  offset="0.9964" style="stop-color:#002D64"/>
	</linearGradient>
	<polygon class="st13" points="129.1,224.8 123.7,226.6 183.9,479.1 191,473.7 	"/>
	
		<linearGradient id="SVGID_5_" gradientUnits="userSpaceOnUse" x1="183.9218" y1="257.6368" x2="525.6218" y2="257.6368" gradientTransform="matrix(1 0 0 -1 0 734)">
		<stop  offset="3.595278e-03" style="stop-color:#002D64"/>
		<stop  offset="1" style="stop-color:#016BBD"/>
	</linearGradient>
	<polygon class="st14" points="183.9,479.1 516.4,479.1 525.6,473.7 191,473.7 	"/>
	
		<linearGradient id="SVGID_6_" gradientUnits="userSpaceOnUse" x1="300.7218" y1="208.0368" x2="372.7218" y2="208.0368" gradientTransform="matrix(1 0 0 -1 0 734)">
		<stop  offset="0" style="stop-color:#40447E"/>
		<stop  offset="0.9964" style="stop-color:#3C3B6B"/>
	</linearGradient>
	<polygon class="st15" points="300.7,527.7 372.7,527.7 372.7,524.3 300.7,524.3 	"/>
	<polygon class="st16" points="354.4,479.1 354,481.7 286.3,495.4 287.2,484.3 287.7,479.1 	"/>
	<path class="st16" d="M361.9,524.3c-2.8,0-56.6,0.1-70.2-0.1c-5.9-0.1-7-5.3-7-8.6l67.4-12.7c-0.7,7.7-1.1,12.6-1.1,13.6
		c0,0.5,0,1.1,0.1,1.5C352.2,524,360.9,524.3,361.9,524.3z"/>
	<polygon class="st17" points="129.1,224.8 459.2,224.8 512.8,424.8 178.9,424.8 	"/>
	<polygon class="st18" points="497.2,416.1 188.1,416.1 177.1,372.1 172.8,355.1 171,348.2 159.7,303 159.1,300.6 153.1,276.7 
		150.4,266 148.1,256.9 142.8,235.5 447.4,235.5 453.3,256.9 455.8,266 458.7,276.7 478.2,347.2 478.2,347.2 479.8,353.1 
		480.6,355.9 494,404.5 	"/>
	<polygon class="st19" points="304.3,424.8 191.2,474.3 178.9,424.8 	"/>
	<g>
		<path class="st0" d="M326,359.2c-25.3,0-49.2-20.5-53.4-45.8c-4.2-25.3,12.9-45.8,38.2-45.8c25.3,0,49.2,20.5,53.4,45.8
			C368.4,338.6,351.2,359.2,326,359.2z M312.1,275.5c-20.9,0-35.1,17-31.6,37.9s23.3,37.9,44.2,37.9c20.9,0,35.1-17,31.6-37.9
			S333,275.5,312.1,275.5z"/>
	</g>
	<path class="st0" d="M413.5,395.3l0.7,4.4c0.4,2.4-1.2,4.3-3.6,4.3H257.2c-2.4,0-4.7-2-5.1-4.3l-0.7-4.4c-0.4-2.4,1.2-4.3,3.6-4.3
		h153.4C410.9,391,413.1,392.9,413.5,395.3z"/>
	<g>
		
			<linearGradient id="SVGID_7_" gradientUnits="userSpaceOnUse" x1="271.9904" y1="420.7368" x2="364.4863" y2="420.7368" gradientTransform="matrix(1 0 0 -1 0 734)">
			<stop  offset="0" style="stop-color:#40447E"/>
			<stop  offset="0.9964" style="stop-color:#3C3B6B"/>
		</linearGradient>
		<path class="st20" d="M326.1,359.2c-25.3,0-49.3-20.6-53.5-45.9s13-45.9,38.3-45.9c13.8,0,27.7,6.1,38.2,16.7
			c8.1,8.2,13.6,18.6,15.3,29.2c0.4,2.2-1.1,4.1-3.4,4.1c-2.2,0-4.4-1.8-4.7-4.1c-1.5-8.8-5.9-17.3-12.6-24
			c-8.7-8.7-20.1-13.8-31.5-13.8c-20.8,0-35,17-31.5,37.8s23.2,37.8,44.1,37.8c2.2,0,4.4,1.8,4.7,4.1
			C329.9,357.3,328.3,359.2,326.1,359.2z"/>
	</g>
	<path class="st21" d="M364,391l2.2,13.1h-109c-2.4,0-4.7-2-5.1-4.3l-0.7-4.4c-0.4-2.4,1.2-4.3,3.6-4.3h109V391z"/>
	<g>
		<polygon class="st22" points="341.4,391 331.5,404 308.9,404 318.8,391 		"/>
	</g>
	<g>
		<polygon class="st22" points="364.2,391 366.4,404 345.5,404 355.3,391 		"/>
	</g>
	<g>
		<polygon class="st22" points="305.1,391 295.2,404 272.6,404 282.5,391 		"/>
	</g>
	<g>
		<path class="st22" d="M268.8,391l-9.9,13.1h-1.7c-2.4,0-4.7-2-5.1-4.3l-0.7-4.4c-0.4-2.4,1.2-4.3,3.6-4.3h13.8V391z"/>
	</g>
	<path class="st0" d="M315.9,369.2h-8.6l-0.4-2.6h12l0.4,2.3l-5.2,14.7h-3.4L315.9,369.2z"/>
	<path class="st0" d="M321.7,375.1c-0.8-4.9,1.5-8.8,6-8.8c4.4,0,8,3.9,8.8,8.8s-1.5,8.8-6,8.8C326,383.8,322.5,380,321.7,375.1z
		 M333.4,375.1c-0.6-3.4-2.7-6.1-5.4-6.1s-3.9,2.7-3.3,6.1s2.7,6.1,5.4,6.1C332.8,381.1,334,378.5,333.4,375.1z"/>
	<path class="st0" d="M339,370.7c-0.4-2.4,0.9-4.3,3.3-4.3s4.3,2,4.7,4.3c0.4,2.4-0.9,4.3-3.3,4.3
		C341.3,375.1,339.4,373.1,339,370.7z M344.9,370.7c-0.2-1.4-1.2-2.5-2.3-2.5c-1.1,0-1.6,1.1-1.4,2.5s1.2,2.5,2.3,2.5
		S345.1,372.1,344.9,370.7z M352.5,366.5h2.4l-9.6,17h-2.4L352.5,366.5z M350.7,379.4c-0.4-2.4,0.9-4.3,3.3-4.3s4.3,2,4.7,4.3
		c0.4,2.4-0.9,4.3-3.3,4.3C353,383.7,351.1,381.8,350.7,379.4z M356.6,379.4c-0.2-1.4-1.2-2.5-2.3-2.5c-1.1,0-1.6,1.1-1.4,2.5
		s1.2,2.5,2.3,2.5C356.3,381.9,356.8,380.8,356.6,379.4z"/>
	<path class="st0" d="M539,278.4l0.4-1c0.8,0.4,1.6,0.6,2.5,0.6c1.4,0,2-0.6,1.8-1.8l-0.1-0.4c-0.4,0.6-1.1,1-2.2,1
		c-1.6,0-3.3-1-3.6-2.7s1-2.7,2.6-2.7c1.1,0,1.9,0.4,2.6,1l-0.2-0.9h1.6l0.9,4.5c0.2,1,0,1.7-0.4,2.2c-0.5,0.5-1.4,0.8-2.7,0.8
		C541.1,279.1,540,278.9,539,278.4z M543.4,274.2c-0.2-0.9-1.2-1.6-2.3-1.6s-1.8,0.6-1.6,1.6c0.2,0.9,1.2,1.6,2.3,1.6
		C542.8,275.8,543.6,275.1,543.4,274.2z"/>
	<path class="st23" d="M379.4,320.7c-24.4-10.3-43.6,2.8-62.1-10.2c-11.2-7.8-2.8-19.7-17.4-30.4c-16.4-11.9-27.3-3.6-42.7-15.3
		c-19.4-14.8-16.6-20.5-28.9-24.6c-26.4-8.7-36.3,8.2-46.2,7.4c-2.9-0.3-10.3-1.9-8.9-11.9c0.1-0.4-12.6,0-12.9,0l-9.2-0.2
		c-5.4,0-0.4-0.6-8.3,0.1L188,415c0,2.6,27.3,0.2,30.6,0h278.5c1.6,5-13.7-45.4-13.7-45.4c1-0.1-24.9-2.6-25.9-2.6
		c-21.3-1.2-34.8-7.1-43.5-13.2C395.9,341.4,399,329,379.4,320.7z"/>
	
		<linearGradient id="SVGID_8_" gradientUnits="userSpaceOnUse" x1="371.2356" y1="565.371" x2="207.0439" y2="389.2069" gradientTransform="matrix(1 0 0 -1 0 734)">
		<stop  offset="3.599540e-03" style="stop-color:#30B7ED"/>
		<stop  offset="0.1468" style="stop-color:#36B9EE"/>
		<stop  offset="0.3379" style="stop-color:#47C1F0"/>
		<stop  offset="0.5561" style="stop-color:#63CCF4"/>
		<stop  offset="0.7924" style="stop-color:#89DCF9"/>
		<stop  offset="1" style="stop-color:#B1EDFF"/>
	</linearGradient>
	<polygon class="st24" points="453.7,258.4 148.7,259.2 142.8,235.5 447.2,235.5 	"/>
	
		<linearGradient id="SVGID_9_" gradientUnits="userSpaceOnUse" x1="160.0659" y1="481.2368" x2="165.2252" y2="481.2368" gradientTransform="matrix(1 0 0 -1 0 734)">
		<stop  offset="0" style="stop-color:#444B8C"/>
		<stop  offset="0.9964" style="stop-color:#26264F"/>
	</linearGradient>
	<path class="st25" d="M165.2,252.8c0,1.2-1.2,2.2-2.6,2.2c-1.4,0-2.6-1-2.6-2.2s1.2-2.2,2.6-2.2
		C164.1,250.6,165.2,251.6,165.2,252.8z"/>
	
		<linearGradient id="SVGID_10_" gradientUnits="userSpaceOnUse" x1="169.4305" y1="481.2868" x2="174.5424" y2="481.2868" gradientTransform="matrix(1 0 0 -1 0 734)">
		<stop  offset="0" style="stop-color:#444B8C"/>
		<stop  offset="0.9964" style="stop-color:#26264F"/>
	</linearGradient>
	<path class="st26" d="M174.5,252.7c0,1.2-1.1,2.2-2.6,2.2c-1.4,0-2.6-0.9-2.6-2.1s1.1-2.2,2.6-2.2S174.5,251.6,174.5,252.7z"/>
	
		<linearGradient id="SVGID_11_" gradientUnits="userSpaceOnUse" x1="178.7091" y1="481.2868" x2="183.7741" y2="481.2868" gradientTransform="matrix(1 0 0 -1 0 734)">
		<stop  offset="0" style="stop-color:#444B8C"/>
		<stop  offset="0.9964" style="stop-color:#26264F"/>
	</linearGradient>
	<path class="st27" d="M183.8,252.7c0,1.2-1.1,2.1-2.5,2.2c-1.4,0-2.5-0.9-2.5-2.1s1.1-2.1,2.5-2.2
		C182.6,250.6,183.8,251.5,183.8,252.7z"/>
	<g>
		
			<linearGradient id="SVGID_12_" gradientUnits="userSpaceOnUse" x1="437.3839" y1="407.3913" x2="294.2283" y2="165.8166" gradientTransform="matrix(1 0 0 -1 0 734)">
			<stop  offset="0" style="stop-color:#AB316D"/>
			<stop  offset="1" style="stop-color:#792D3D"/>
		</linearGradient>
		<path class="st28" d="M568,296.8l-31.7,59.1l-96.7-1.2l-42.9,94.5L286,453.6l-57.4,100.9c-1,1.8-2.7,3-4.6,3.1l-7.5,0.7
			c-3.4,0.6-10.7-0.6-9.6-4.3l38.9-100.3l32-16.3l107.6-4.7l40.7-93l98.9-1.2l33.1-57.4L568,296.8z"/>
		
			<linearGradient id="SVGID_13_" gradientUnits="userSpaceOnUse" x1="486.1108" y1="414.0713" x2="490.4088" y2="421.3778" gradientTransform="matrix(1 0 0 -1 0 734)">
			<stop  offset="0" style="stop-color:#AB316D"/>
			<stop  offset="1" style="stop-color:#792D3D"/>
		</linearGradient>
		<polygon class="st29" points="509,300.8 491.2,291.5 511,286.9 		"/>
		
			<linearGradient id="SVGID_14_" gradientUnits="userSpaceOnUse" x1="578.7405" y1="498.6531" x2="573.127" y2="450.0016" gradientTransform="matrix(1 0 0 -1 0 734)">
			<stop  offset="0" style="stop-color:#AB316D"/>
			<stop  offset="1" style="stop-color:#792D3D"/>
		</linearGradient>
		<polygon class="st30" points="576.7,281.2 586,296.8 565.4,296.8 558.4,286.9 		"/>
		
			<linearGradient id="SVGID_15_" gradientUnits="userSpaceOnUse" x1="579.946" y1="454.6742" x2="591.3125" y2="538.0281" gradientTransform="matrix(1 0 0 -1 0 734)">
			<stop  offset="0" style="stop-color:#AB316D"/>
			<stop  offset="1" style="stop-color:#792D3D"/>
		</linearGradient>
		<polygon class="st31" points="588.2,227 579.6,219.7 575.8,278.6 579.6,286.2 586,296.8 		"/>
		
			<linearGradient id="SVGID_16_" gradientUnits="userSpaceOnUse" x1="416.7134" y1="397.8971" x2="364.1184" y2="301.248" gradientTransform="matrix(1 0 0 -1 0 734)">
			<stop  offset="0" style="stop-color:#FF9085"/>
			<stop  offset="1" style="stop-color:#FB6FBB"/>
		</linearGradient>
		<polygon class="st32" points="346,426 390.6,439.9 433.5,345.3 388.9,331.4 		"/>
		
			<linearGradient id="SVGID_17_" gradientUnits="userSpaceOnUse" x1="267.0815" y1="304.5596" x2="169.427" y2="153.76" gradientTransform="matrix(1 0 0 -1 0 734)">
			<stop  offset="0" style="stop-color:#FF9085"/>
			<stop  offset="1" style="stop-color:#FB6FBB"/>
		</linearGradient>
		<path class="st33" d="M174.9,547.4l33.4,10.4c3.5,1.1,7.3-0.5,9.3-4L280,444.3l-44.6-13.9l-62.9,110.1
			C171.1,543.1,172.2,546.6,174.9,547.4z"/>
		
			<linearGradient id="SVGID_18_" gradientUnits="userSpaceOnUse" x1="378.02" y1="310.4135" x2="188.4594" y2="276.8521" gradientTransform="matrix(1 0 0 -1 0 734)">
			<stop  offset="0" style="stop-color:#FF9085"/>
			<stop  offset="1" style="stop-color:#FB6FBB"/>
		</linearGradient>
		<polygon class="st34" points="235.3,430.4 279.9,444.3 390.6,439.9 346,426 		"/>
		
			<linearGradient id="SVGID_19_" gradientUnits="userSpaceOnUse" x1="461.7125" y1="415.9331" x2="457.6259" y2="375.9751" gradientTransform="matrix(1 0 0 -1 0 734)">
			<stop  offset="0" style="stop-color:#FF9085"/>
			<stop  offset="1" style="stop-color:#FB6FBB"/>
		</linearGradient>
		<polygon class="st35" points="388.9,331.4 433.5,345.3 530.2,346.6 485.5,332.7 		"/>
		
			<linearGradient id="SVGID_20_" gradientUnits="userSpaceOnUse" x1="509.0617" y1="411.6808" x2="593.3011" y2="518.772" gradientTransform="matrix(1 0 0 -1 0 734)">
			<stop  offset="0" style="stop-color:#FF9085"/>
			<stop  offset="1" style="stop-color:#FB6FBB"/>
		</linearGradient>
		<polygon class="st36" points="491.2,291.5 508.2,290.5 485.5,332.7 530.2,346.6 562,287.3 579.6,286.2 579.6,219.7 		"/>
		<g class="st2">
			
				<linearGradient id="SVGID_21_" gradientUnits="userSpaceOnUse" x1="411.8109" y1="400.9381" x2="359.0529" y2="303.9897" gradientTransform="matrix(1 0 0 -1 0 734)">
				<stop  offset="0" style="stop-color:#FF9085"/>
				<stop  offset="1" style="stop-color:#FB6FBB"/>
			</linearGradient>
			<path class="st37" d="M361.6,422.5c12.8-11.7,24.5-4.6,32.7-14.2c7-8.2-0.2-14.9,7.8-35.1c6.5-16.5,16.1-24.1,18-25.5
				c2.5-1.9,4.9-3.3,7-4.4l-38.2-11.9L346,425.9l10,3.1C357.4,426.9,359.3,424.6,361.6,422.5z"/>
		</g>
		
			<linearGradient id="SVGID_22_" gradientUnits="userSpaceOnUse" x1="470.0171" y1="409.1068" x2="456.6154" y2="384.4795" gradientTransform="matrix(1 0 0 -1 0 734)">
			<stop  offset="0" style="stop-color:#FF9085"/>
			<stop  offset="1" style="stop-color:#FB6FBB"/>
		</linearGradient>
		<path class="st38" d="M439,333.9c-8.2,0.6-9.6,1-9.6,1.4c-0.1,1.3,13.1,3.9,26.4,4.3c11.9,0.4,14-1.3,26.8-0.4
			c8.3,0.6,13.9,1.8,14,1.1c0.2-0.9-7.6-4.1-15.9-6C469.4,331.6,459.1,332.3,439,333.9z"/>
		
			<linearGradient id="SVGID_23_" gradientUnits="userSpaceOnUse" x1="260.7436" y1="309.4131" x2="162.9475" y2="158.3949" gradientTransform="matrix(1 0 0 -1 0 734)">
			<stop  offset="0" style="stop-color:#FF9085"/>
			<stop  offset="1" style="stop-color:#FB6FBB"/>
		</linearGradient>
		<path class="st39" d="M212.2,500.2c6.9-12.8,9.5-25.9,21.5-32.3c9.2-4.9,15.5-1.3,23.6-7.4c6.4-4.8,9.8-12.4,11.8-19.6l-33.8-10.5
			l-60.2,105.8C195.8,524.7,206.4,511,212.2,500.2z"/>
	</g>
	<g>
		<path class="st40" d="M482,385.9c-0.5,0.6-0.6,1.3-0.3,2l0,0c0.5,1.3,2.1,2.8,3.9,4.3c0.2,0.2,0.4,0.4,0.6,0.5l0.1,0.1l0.1,0.1
			c1.7,1.6,1.1,1.9,4.1,5.1c3.5,3.6,5.9,3.7,6.6,3.4c0.6-0.3-0.6-2.2-1.9-4.4c-0.1-0.1-0.1-0.2-0.2-0.3c-0.2-0.3-0.3-0.6-0.5-0.9
			c-1.5-2.6-1.1-3.8-0.8-7.7c0.3-3.2,4.9-17.6,4.9-17.6l-6.7-1.2c0,0-2,11.5-4.2,13.3c-1.2,0.9-2.5,1-3.7,1.7
			c-0.1,0-0.2,0.1-0.2,0.2C483.2,384.8,482.5,385.3,482,385.9z"/>
	</g>
	<g>
		<path class="st41" d="M482,385.9c-0.5,0.6-0.6,1.3-0.3,2l0,0c0.6,1.3,2.1,2.8,3.9,4.2c0.2,0.2,0.4,0.4,0.6,0.5l0.1,0.1l0.1,0.1
			c1.7,1.6,1.1,1.9,4.1,5.1c3.5,3.6,5.9,3.7,6.6,3.4c0.6-0.3-0.6-2.2-1.9-4.4c-0.7-0.2-3.8-1.5-6.2-4.6c-2-2.6-3.4-5.9-4.8-7.9
			c-0.2,0-0.2,0-0.4-0.1C483.2,384.8,482.5,385.3,482,385.9z"/>
	</g>
	<g>
		<path class="st40" d="M536.1,381.7c0.4,2.1,3.4,1.7,6.7,0.9c3.3-0.8,2.5,0.2,7.2-0.4c4.7-0.5,6.1-2.3,6.3-3
			c0.1-0.6-2.2-0.8-4.7-1.1c-0.3,0-0.6-0.1-0.9-0.1c-2.8-0.4-4.9-2.2-7.4-3.7c-2.4-1.4-6-7.2-6-7.2l-6.4,0.5c0,0,3.4,5.1,4.7,7.4
			c0.8,1.3,0.7,3,0.6,4.4C536,380.2,535.9,381,536.1,381.7z"/>
	</g>
	<g>
		<path class="st41" d="M542.7,382.6c3.3-0.8,2.5,0.2,7.2-0.4c4.7-0.5,6.1-2.3,6.3-3c0.1-0.6-2.2-0.8-4.7-1.1l0,0c0,0-2.8,2-6.7,2.1
			c-3.2,0.1-6.6-0.8-8.8-0.8c0,0.7-0.1,1.5,0,2.2C536.5,383.8,539.4,383.4,542.7,382.6z"/>
	</g>
	<g>
		<path class="st42" d="M511.4,340.6l-6,16.2l-7.9,21.1c0,0-2.1,0.2-4.2-0.4c-1.9-0.5-4-2-4-2s2.2-22.7,6.2-35.7
			c1-3.3,2.2-6,3.5-7.6C505.4,324.8,511.4,340.6,511.4,340.6z"/>
	</g>
	<g>
		<path class="st43" d="M505.3,314.9c-3.4-1.1-12.4,0-22,1.7c-2.7,0.5-5.4-0.7-6.8-3.1l0,0l-24.4-1.9c0,0-8,17.8-3.6,29.2
			c0.6,1.7,2.1,2.7,4.3,2.7l0,0c0,0,14.7,0,19.4,0c12.1,0,25.7-8.3,27.4-8.7c2.9-0.6,4,5.2,6.9,11.2c2.9,6,26.9,26.7,26.9,26.7
			s3.7,0,5.2-0.5c1.6-0.6,2.2-1.4,2.2-1.4S514.2,317.7,505.3,314.9z"/>
	</g>
	<g>
		<path class="st44" d="M473.9,241.9c-1.8-1.1-3.6-1.2-4.7-1.2c-0.8,0-1.5,0-2.2-0.1c-9.3-1.4-14.9,12.2-15.2,16.2
			c-0.6,7.5-4.6,8.6-10.2,13.3c-11.2,9.4-7.9,20.4-1.8,24.4c3.7,2.4,10.1,0,10.1,0c0.1,0.1,17.7-9.8,26.4-14.6
			C489.3,278.1,479.1,245,473.9,241.9z"/>
	</g>
	<g>
		<path class="st40" d="M469,275.9c0,0-4.3,1.5-7.2,0.2c-2.7-1.2-4.8-5.7-4.7-5.7c1.2-0.1,2.6-1.1,3.6-8.2l0.5,0.2l8.8,3.2
			c0,0-0.6,2.8-1.1,5.5C468.7,273.4,468.6,275.6,469,275.9z"/>
	</g>
	<g>
		<path class="st45" d="M470.1,265.6c0,0-0.4,1.5-0.9,4.4c-5.1-0.9-7.3-4.8-8-7.6L470.1,265.6z"/>
	</g>
	<g>
		<path class="st40" d="M471.5,268.4c0,0-12.1-1.6-11-9.1c1.1-7.5,0.3-12.8,8.1-12.1c7.8,0.7,8.8,3.8,9.1,6.4
			C477.9,256.2,474.6,268.6,471.5,268.4z"/>
	</g>
	<g>
		<path d="M478.2,249.5c0,0-8.1,7-13.6,7.6s-7.6-1.2-7.6-1.2s3.3-2.7,5.2-7.1c0.6-1.3,1.8-2.2,3.2-2.3
			C469.3,246.1,476.7,246,478.2,249.5z"/>
	</g>
	<g>
		<path d="M472.4,248.9c0,0,2.6,2.5,3.4,4.4c0.8,1.8,1,6.1,0.4,7.8c0,0,4-7.8,1.7-11.6C475.5,245.4,472.4,248.9,472.4,248.9z"/>
	</g>
	<g>
		<path class="st46" d="M479.2,293.7c-0.4,24.5-0.1,19.3-2.8,21.7c-0.6,0.6-2.5,0.9-4.8,1c-7.5,0.5-20.7-0.7-21.2-2.1
			c-1.7-4.8-0.5-6.3-2-13.6c-0.2-0.8-0.3-1.6-0.6-2.5c-1.2-5-2.4-6.8,1.9-14.9c3.9-7.3,7.9-13.3,8.3-13.1c10.2,6.1,11,1,11,1
			S479.4,281.8,479.2,293.7z"/>
	</g>
	<g>
		<path class="st43" d="M505.4,356.7l-7.9,21.1c0,0-2.1,0.2-4.2-0.4c-1.9-0.5-4-2-4-2s2.2-22.7,6.2-35.7L505.4,356.7z"/>
	</g>
	<g>
		<path class="st46" d="M469.1,271.1c0,0,10.5,1.8,11.7,6.3s5.3,32,5.3,32s-3,2.9-5.4,0.4c-2.5-2.5-7.8-25.7-7.8-25.7L469.1,271.1z"
			/>
	</g>
	<g>
		<path class="st47" d="M471.6,316.4c-7.5,0.5-20.7-0.7-21.2-2.1c-1.7-4.8-0.5-6.3-2-13.6l3.6-10.2c0,0-0.6,11.3,2.7,14.3
			c3.3,3,13.7,5.8,15.3,8.3C470.9,314.2,471.4,315.4,471.6,316.4z"/>
	</g>
	<g>
		<path class="st40" d="M463,311.6c0,0,7.4-1.6,8.6-1c1.2,0.7,4.1,3,4.5,3.9c0.4,0.8-2.7-0.6-3.6-0.9c-0.6-0.2-2.3,0.4-3.1,0.7
			c-3.5,1.2-5.6,0.6-5.6,0.6L463,311.6z"/>
	</g>
	<g>
		<path class="st46" d="M458,270.2c0,0-9.9,0.6-13.4,5.4c-4.8,6.8-14.4,35.5-8.9,39.4c6.2,4.3,28.2,1.1,28.2,1.1s0.7-3.4-0.3-5.1
			s-17.6-4.3-18.3-5.1c-0.8-0.8,9.6-14.9,9.6-17.2C454.9,286.4,458,270.2,458,270.2z"/>
	</g>
	<g>
		<path class="st40" d="M472,312.7c0,0,1.6,2,2.1,2.2s0.8,0.2,0.8,0.2l-1-1.9L472,312.7z"/>
	</g>
	<g>
		<path class="st40" d="M471.6,310.6l4.5,2.2c0,0-0.2,0.3-0.7,0.3c-0.6,0-2-0.5-2-0.5L471.6,310.6z"/>
	</g>
	<g>
		<g>
			<polygon class="st41" points="510.1,315.8 463,315.8 463,316.8 509.7,316.8 			"/>
		</g>
		<g>
			<polygon class="st41" points="474,316.8 509.7,316.8 520.4,290.2 484.8,290.2 			"/>
		</g>
		<g>
			<path class="st48" d="M500.7,303.5c0.3-0.9-0.3-1.7-1.2-1.7c-0.9,0-1.9,0.8-2.2,1.7c-0.3,0.9,0.3,1.7,1.2,1.7
				S500.4,304.4,500.7,303.5z"/>
		</g>
	</g>
	<g>
		<path class="st49" d="M120.5,396.5c0,0-13.7,13.9-14.4,19.7c-0.7,5.8,7.1,14.8,7.1,14.8L120.5,396.5z"/>
	</g>
	<g>
		<path class="st50" d="M128.3,554.2c0,0,0.5,8.1,2.1,8.3c0.2,0,8,0,8,0l9.9-0.1c0,0-0.1-2.4-3-2.9s-7.8-2.5-9.5-6.4
			C134,549.1,128.3,554.2,128.3,554.2z"/>
	</g>
	<g>
		<path class="st50" d="M106.2,554.2c0,0,0.5,8.1,2.1,8.3c0.2,0,8,0,8,0l9.9-0.1c0,0-0.1-2.4-3-2.9c-2.9-0.5-7.8-2.5-9.5-6.4
			C111.9,549.1,106.2,554.2,106.2,554.2z"/>
	</g>
	<g>
		<path class="st51" d="M139.2,466.6c0,0-2.6,16.6-12.2,46.1c-9.6,29.5-10.9,42.3-10.9,42.3l-10.4-0.3c0,0-0.2-32.2,4.3-47.1
			c4.4-14.8,0.8-53.5,0.8-53.5L139.2,466.6z"/>
	</g>
	<g>
		<path class="st52" d="M144.2,455.1c0,0,0.4,25-3.8,55.8c-4.3,30.8-2.8,43.8-2.8,43.8l-10.4,0.4c0,0-6.3-30.7-4.5-46.1
			c1.7-15.4-8.6-52.8-8.6-52.8L144.2,455.1z"/>
	</g>
	<g>
		<path class="st40" d="M124,396.5l5.5,3.6l8-1.5c-0.1-0.6-0.6-3.3-1.1-5.7c0-0.1-0.1-0.3-0.1-0.4c-0.4-2.1-0.8-3.8-0.8-3.8
			l-7.5-3.3l-2.8-1.2c0,0,0.2,2.3,0.3,2.6C126,392.5,124,396.5,124,396.5z"/>
	</g>
	<g>
		<path class="st49" d="M135.4,394.6c-0.2-0.1-9.6-2.8-10.7-2.5c-1,0.3-1.6,2.3-1.6,2.3l15.5,3.5
			C138.7,397.9,137.4,395.5,135.4,394.6z"/>
	</g>
	<g>
		<path class="st53" d="M110.1,458.2c1.6,7.3,28.3,8.1,35.2,1.5c0.8-0.8,0.8-4.3,0.5-9c-0.6-9.3-2.5-23.2-2.6-30.4
			c0-3.4-0.5-7-1.2-10.2c-1.4-6.8-3.4-12.2-3.4-12.2s-13.1-4.2-15.5-3.5C111.4,398,108.5,450.9,110.1,458.2z"/>
	</g>
	<g>
		<path class="st49" d="M145.8,450.7c-0.6-9.3-2.5-23.2-2.6-30.4c0-3.4-0.5-7-1.2-10.2l-7.9-1.4C134.2,408.7,125.6,442,145.8,450.7z
			"/>
	</g>
	<g>
		<path class="st40" d="M140.6,430c0,0-0.6,1.4,0.6,2.3c1.2,0.9,2,2.4,1.7,3.5s-2.9,2.8-3.8,2.6c-0.9-0.3-2.8-1.7-2.6-2.3
			s-1.3-5,1-6.7C139.8,427.6,140.6,430,140.6,430z"/>
	</g>
	<g>
		<path class="st53" d="M132.9,396.5c0,0,7.4,1,13.6,10c6.1,9,10.1,15.6,9,18.9c-1.1,3.2-11.3,14.5-13.1,14.5s-4.6-1.3-4.8-4.2
			c0,0,6.5-11.5,5-13.1c-0.6-0.7-8.7-7.1-9.9-3.9C130.7,424,132.9,396.5,132.9,396.5z"/>
	</g>
	<g>
		<path class="st54" d="M126.1,386.8c1.6,2.8,7.8,5.2,10.3,6c0-0.1-0.1-0.3-0.1-0.4c-0.4-2.1-0.8-3.8-0.8-3.8l-7.5-3.3
			C126.4,385.3,125.4,385.7,126.1,386.8z"/>
	</g>
	<g>
		<path class="st40" d="M138.3,388.1c0,0-12,3.8-14.3-3.7c-2.2-7.5-5.3-12.1,2.3-14.8c7.6-2.7,9.9-0.3,11.3,2
			C139,373.9,141.4,387,138.3,388.1z"/>
	</g>
	<g>
		<path d="M137.2,370.9c0,0-0.7,8.8-2.6,8.4c-1.8-0.4-3.5-0.7-3.2,2c0.3,2.6,2.8,5.7-2.8,6.2s-13.6-13.9-12.1-16.6
			C120.9,362.9,143.5,361.3,137.2,370.9z"/>
	</g>
</g>
</svg>
