<?xml version="1.0" encoding="utf-8"?>
<!-- Generator: Adobe Illustrator 25.0.0, SVG Export Plug-In . SVG Version: 6.00 Build 0)  -->
<svg version="1.1" id="e4476520-1cdd-4de1-b4a4-c2e57e044eb7"
	 xmlns="http://www.w3.org/2000/svg" xmlns:xlink="http://www.w3.org/1999/xlink" x="0px" y="0px" viewBox="0 0 788.3 651.4"
	 style="enable-background:new 0 0 788.3 651.4;" xml:space="preserve">
<style type="text/css">
	.st0{fill:url(#SVGID_1_);}
	.st1{fill:#F5F5F5;}
	.st2{fill:#FFFFFF;}
	.st3{fill:#FF5252;}
	.st4{fill:#FFFF00;}
	.st5{fill:#69F0AE;}
	.st6{fill:#646490;}
	.st7{fill:#FFA14D;}
	.st8{fill:none;}
	.st9{fill:#D43B5E;}
	.st10{fill:none;stroke:#FF7936;stroke-miterlimit:10;}
	.st11{fill:none;stroke:#FF7936;stroke-miterlimit:10;stroke-dasharray:3.7697,3.7697;}
	.st12{fill:none;stroke:#FF7936;stroke-miterlimit:10;stroke-dasharray:3.8808,3.8808;}
	.st13{fill:none;stroke:#FF7936;stroke-miterlimit:10;stroke-dasharray:3.8348,3.8348;}
	.st14{fill:#51517A;}
	.st15{fill:#8888BC;}
	.st16{font-family:'Montserrat-Bold';}
	.st17{font-size:18.4614px;}
	.st18{font-size:17.7337px;}
	.st19{fill:#1499F4;}
	.st20{fill:#EF2E2E;}
	.st21{fill:#3F537E;}
	.st22{fill:none;stroke:#FF7936;stroke-miterlimit:10;stroke-dasharray:3.6628,3.6628;}
	.st23{fill:none;stroke:#FF7936;stroke-miterlimit:10;stroke-dasharray:3.8466,3.8466;}
	.st24{fill:none;stroke:#FF7936;stroke-miterlimit:10;stroke-dasharray:3.7907,3.7907;}
	.st25{font-family:'Montserrat-Black';}
	.st26{font-size:26.1577px;}
	.st27{fill:#2E2E46;}
	.st28{font-size:31.7613px;}
	.st29{fill:#BFBFBF;}
	.st30{fill:#FF800D;}
	.st31{fill:#A554ED;}
	.st32{fill:#FF7936;}
	.st33{fill:none;stroke:#FF7936;stroke-miterlimit:10;stroke-dasharray:3.8724,3.8724;}
	.st34{fill:none;stroke:#FF7936;stroke-miterlimit:10;stroke-dasharray:4.1205,4.1205;}
	.st35{fill:none;stroke:#FF7936;stroke-miterlimit:10;stroke-dasharray:4.302,4.302;}
	.st36{fill:none;stroke:#FFFFFF;stroke-miterlimit:10;}
	.st37{fill:#1C1C1B;}
	.st38{font-size:20.6444px;}
</style>
<linearGradient id="SVGID_1_" gradientUnits="userSpaceOnUse" x1="361.5168" y1="-591.902" x2="361.5168" y2="-127.802" gradientTransform="matrix(0.9508 -0.3098 -0.3098 -0.9508 -60.9623 95.6006)">
	<stop  offset="2.663895e-07" style="stop-color:#808080;stop-opacity:0.25"/>
	<stop  offset="0.4726" style="stop-color:#808080;stop-opacity:0.12"/>
	<stop  offset="1" style="stop-color:#808080;stop-opacity:0.1"/>
</linearGradient>
<path class="st0" d="M16.5,205.1c-9.1,3-14.1,12.7-11.1,21.9l3.4,10.3L138.2,635c3,9.1,12.8,14.1,21.9,11.1L772,446.4
	c9.1-3,14.1-12.7,11.1-21.9L653.6,26.8l-3.3-10.3c-3-9.1-12.8-14.1-21.9-11.1L16.5,205.1z"/>
<rect x="1.2" y="111.7" transform="matrix(0.9507 -0.3102 0.3102 0.9507 -22.5441 108.3334)" class="st1" width="656.3" height="26.7"/>
<rect x="67.9" y="125.1" transform="matrix(0.951 -0.3093 0.3093 0.951 -83.0813 138.7451)" class="st2" width="656.3" height="412.6"/>
<path class="st3" d="M581.8,36.4c0-5.5,5.4-9.2,10.5-7.2c2.8,1.1,4.8,3.9,4.8,7c0,5.5-5.4,9.2-10.5,7.2
	C583.7,42.3,581.8,39.5,581.8,36.4z"/>
<path class="st4" d="M602.1,29.8c0-5.5,5.4-9.2,10.5-7.2c2.8,1.1,4.8,3.9,4.8,7c0,5.5-5.4,9.2-10.5,7.2
	C604,35.7,602.1,32.9,602.1,29.8z"/>
<path class="st5" d="M622.4,23.2c0-5.5,5.4-9.2,10.5-7.2c2.8,1.1,4.8,3.9,4.8,7c0,5.5-5.4,9.2-10.5,7.2
	C624.3,29.1,622.4,26.2,622.4,23.2z"/>
<g>
	<g>
		<path class="st6" d="M161.1,491.5c-2.8-1.4-5.8-2.2-8.8-2.6c-0.1,0-0.1,0-0.2,0c-4.3-0.5-8.7,0.1-12.7,1.7
			c-2.8,1.1-5.4,2.7-7.8,4.8c-0.1,0.1-0.3,0.3-0.4,0.4c-4.2,3.9-6.9,8.7-8.1,13.9c-1.9,8.3,0.2,17.3,6.4,24.1
			c10,11,27.1,11.7,38,1.7c10-9.2,11.5-24.3,4-35.1c-0.7-1-1.4-1.9-2.3-2.9C166.7,494.9,164,492.9,161.1,491.5z M161.8,529.4
			c-7.6,6.9-19.4,6.4-26.4-1.2c-4.1-4.5-5.6-10.5-4.5-16.1V512c0.7-3.8,2.7-7.3,5.7-10.1c0.6-0.5,1.2-1,1.8-1.4
			c0.1,0,0.1-0.1,0.2-0.1c3.2-2.2,6.9-3.3,10.6-3.3l0,0c3.2,0,6.4,0.8,9.2,2.4c1.7,0.9,3.2,2.1,4.5,3.6c0.8,0.9,1.6,1.9,2.2,2.9
			C169.7,513.4,168.5,523.3,161.8,529.4z"/>
	</g>
	<path class="st7" d="M152.2,488.9c3,0.3,6,1.2,8.8,2.6c2.9,1.4,5.7,3.4,8,6c0.8,0.9,1.6,1.9,2.3,2.9l-6.2,5.6c-0.6-1-1.3-2-2.2-2.9
		c-1.3-1.5-2.9-2.7-4.5-3.6c-2.8-1.6-6-2.4-9.2-2.4l0,0l0,0l2.8-8.1"/>
	<line class="st8" x1="152.2" y1="488.9" x2="149.3" y2="497"/>
	<path class="st9" d="M149.3,497L149.3,497c-3.8,0-7.5,1.1-10.7,3.3c-0.1,0-0.1,0.1-0.2,0.1l-6.9-5c2.4-2.1,5-3.7,7.8-4.8
		c4.1-1.6,8.5-2.2,12.7-1.7"/>
</g>
<g>
	<g>
		<line class="st10" x1="159.7" y1="540.5" x2="160.4" y2="542.4"/>
		<line class="st11" x1="161.6" y1="545.9" x2="172.8" y2="579.9"/>
		<polyline class="st10" points="173.4,581.7 174.1,583.6 176,583 		"/>
		<line class="st12" x1="179.6" y1="581.8" x2="244.1" y2="560.3"/>
		<polyline class="st10" points="245.9,559.7 247.8,559.1 247.2,557.2 		"/>
		<line class="st13" x1="246" y1="553.6" x2="234.5" y2="519"/>
		<line class="st10" x1="233.9" y1="517.2" x2="233.3" y2="515.3"/>
	</g>
</g>
<rect x="157" y="221.2" transform="matrix(0.949 -0.3152 0.3152 0.949 -98.7559 103.6408)" class="st14" width="228.1" height="271.9"/>
<rect x="115.4" y="214.7" transform="matrix(0.949 -0.3152 0.3152 0.949 -61.4142 84.1467)" class="st15" width="228.1" height="34.5"/>
<g>
	<g>
		<path class="st7" d="M391.1,440.8l0.7,2.1l-6.8,5.5l-0.7-2l4.8-3.8l-6.1-0.2l-0.7-2L391.1,440.8z"/>
	</g>
	<g>
		<path class="st7" d="M368,445.2l0.7,2l-4.8,3.8l6.1,0.2l0.7,2l-8.8-0.4l-0.7-2.1L368,445.2z"/>
	</g>
	<text transform="matrix(0.949 -0.3152 0.3152 0.949 375.02 452.8528)" class="st7 st16 st17">/</text>
</g>
<g>
	<g>
		<path class="st7" d="M184.9,288.1l0.9,2.7l-8.5,6.9l-0.8-2.5l6-4.7l-7.6-0.2l-0.8-2.5L184.9,288.1z"/>
	</g>
	<g>
		<path class="st7" d="M165.8,290.3l0.8,2.5l-6,4.7l7.6,0.2l0.8,2.5l-10.9-0.5l-0.9-2.7L165.8,290.3z"/>
	</g>
</g>
<text transform="matrix(0.949 -0.3152 0.3152 0.949 136.0012 271.4617)" class="st2 st16 st18">PYTHON</text>
<rect x="178.6" y="303.9" transform="matrix(0.949 -0.3152 0.3152 0.949 -86.9153 82.6588)" class="st19" width="67" height="12.3"/>
<rect x="252" y="285.1" transform="matrix(0.949 -0.3152 0.3152 0.949 -78.1032 99.556)" class="st20" width="33.5" height="12.3"/>
<rect x="290.8" y="270.1" transform="matrix(0.949 -0.3152 0.3152 0.949 -71.0734 113.0228)" class="st2" width="46.2" height="12.3"/>
<rect x="186.4" y="330.3" transform="matrix(0.949 -0.3152 0.3152 0.949 -95.7477 80.8364)" class="st19" width="31.3" height="12.3"/>
<rect x="223.6" y="314.3" transform="matrix(0.949 -0.3152 0.3152 0.949 -88.2467 95.2286)" class="st20" width="53.4" height="12.3"/>
<rect x="282.3" y="293.4" transform="matrix(0.949 -0.3152 0.3152 0.949 -78.4521 114.0036)" class="st2" width="61.9" height="12.3"/>
<rect x="193" y="349.6" transform="matrix(0.949 -0.3152 0.3152 0.949 -101.2449 85.46)" class="st19" width="41.2" height="12.3"/>
<rect x="237.6" y="328.8" transform="matrix(0.949 -0.3152 0.3152 0.949 -91.4894 104.181)" class="st20" width="77.5" height="12.3"/>
<rect x="320.2" y="309.2" transform="matrix(0.949 -0.3152 0.3152 0.949 -82.3068 121.7617)" class="st2" width="30.2" height="12.3"/>
<rect x="199.7" y="368.7" transform="matrix(0.949 -0.3152 0.3152 0.949 -106.6501 90.2328)" class="st19" width="51.9" height="12.3"/>
<rect x="256.3" y="350.1" transform="matrix(0.949 -0.3152 0.3152 0.949 -97.9387 106.8881)" class="st20" width="50.4" height="12.3"/>
<rect x="311.5" y="332.5" transform="matrix(0.949 -0.3152 0.3152 0.949 -89.6869 122.7273)" class="st2" width="46.2" height="12.3"/>
<rect x="207.3" y="394.1" transform="matrix(0.949 -0.3152 0.3152 0.949 -115.0108 89.3363)" class="st19" width="22.8" height="12.3"/>
<rect x="235.6" y="381" transform="matrix(0.949 -0.3152 0.3152 0.949 -108.8719 101.1022)" class="st20" width="45.1" height="12.3"/>
<rect x="284.2" y="358.8" transform="matrix(0.949 -0.3152 0.3152 0.949 -98.4722 120.9946)" class="st2" width="81.3" height="12.3"/>
<rect x="213.1" y="408.2" transform="matrix(0.949 -0.3152 0.3152 0.949 -118.0815 98.5476)" class="st19" width="65.1" height="12.3"/>
<rect x="283.8" y="392.2" transform="matrix(0.949 -0.3152 0.3152 0.949 -110.5821 112.9102)" class="st20" width="20" height="12.3"/>
<rect x="310" y="376.6" transform="matrix(0.949 -0.3152 0.3152 0.949 -103.2635 126.9774)" class="st2" width="61.9" height="12.3"/>
<rect x="219.6" y="425.9" transform="matrix(0.949 -0.3152 0.3152 0.949 -122.8254 104.6063)" class="st19" width="84.8" height="12.3"/>
<rect x="308.1" y="404.8" transform="matrix(0.949 -0.3152 0.3152 0.949 -112.9406 123.5289)" class="st20" width="34.7" height="12.3"/>
<rect x="347.8" y="392.4" transform="matrix(0.949 -0.3152 0.3152 0.949 -107.1248 134.7011)" class="st2" width="30.2" height="12.3"/>
<rect x="228" y="456" transform="matrix(0.949 -0.3152 0.3152 0.949 -133.384 99.5221)" class="st19" width="26" height="12.3"/>
<rect x="259.6" y="444.5" transform="matrix(0.949 -0.3152 0.3152 0.949 -128.0057 109.7755)" class="st20" width="31.6" height="12.3"/>
<rect x="295.8" y="422.7" transform="matrix(0.949 -0.3152 0.3152 0.949 -117.7828 129.3903)" class="st2" width="90.7" height="12.3"/>
<rect x="368.4" y="255.7" transform="matrix(0.949 -0.3152 0.3152 0.949 -87.8687 133.7697)" class="st2" width="2.5" height="165.7"/>
<circle class="st2" cx="160.3" cy="327.2" r="6.1"/>
<circle class="st2" cx="167.2" cy="348" r="6.1"/>
<circle class="st2" cx="174.1" cy="368.8" r="6.1"/>
<circle class="st2" cx="181" cy="389.6" r="6.1"/>
<circle class="st2" cx="187.9" cy="410.4" r="6.1"/>
<circle class="st2" cx="194.8" cy="431.2" r="6.1"/>
<circle class="st2" cx="201.7" cy="452" r="6.1"/>
<circle class="st2" cx="208.6" cy="472.8" r="6.1"/>
<path class="st9" d="M328.6,201c1.1,3.3-0.7,6.8-4,7.9c-3.3,1.1-6.8-0.7-7.9-4s0.7-6.8,4-7.9C324,195.9,327.5,197.7,328.6,201z"/>
<path class="st2" d="M313.9,205.7c1.1,3.3-0.7,6.9-4,8s-6.9-0.7-8-4s0.7-6.9,4-8C309.2,200.6,312.8,202.4,313.9,205.7z"/>
<polygon class="st21" points="591.4,411.1 565.6,419.5 563,412.5 588.9,404.1 "/>
<polygon class="st6" points="640.2,381.2 561.1,407.1 558.6,400.1 637.7,374.2 "/>
<g>
	<g>
		<line class="st10" x1="611.8" y1="405.9" x2="612.4" y2="407.8"/>
		<line class="st22" x1="613.7" y1="411.2" x2="620.5" y2="430.2"/>
		<polyline class="st10" points="621.1,431.9 621.8,433.8 623.7,433.2 		"/>
		<line class="st23" x1="627.3" y1="432" x2="713.2" y2="403.9"/>
		<polyline class="st10" points="715.1,403.3 717,402.7 716.3,400.8 		"/>
		<line class="st24" x1="715" y1="397.2" x2="710.5" y2="384.7"/>
		<line class="st10" x1="709.9" y1="383" x2="709.2" y2="381.1"/>
	</g>
</g>
<text transform="matrix(0.9756 -0.3189 0.3377 0.9413 551.9554 390.6494)" class="st25 st26">CSS</text>
<g>
	<g>
		<path class="st6" d="M720,345.7c-0.6-0.8-1.3-1.6-2-2.4c-2-2.1-4.4-3.8-7-4.9c-2.4-1.1-5-1.8-7.6-2.1h-0.1
			c-3.7-0.4-7.4,0.1-10.9,1.5c-2.4,0.9-4.6,2.3-6.7,4c-0.1,0.1-0.3,0.2-0.4,0.3c-3.6,3.2-5.9,7.3-6.8,11.6c-1.2,5.3-0.3,11,2.7,15.9
			c0.8,1.4,1.9,2.7,3.1,4c8.7,9,23.4,9.6,32.7,1.2c5.7-5.1,8.1-12.3,7.1-19.2C723.5,352.1,722.2,348.7,720,345.7z M712.1,369.8
			c-6.5,5.8-16.6,5.4-22.7-0.9c-0.5-0.5-0.9-1-1.4-1.6c-2.6-3.5-3.5-7.7-2.7-11.7v-0.1c0.6-3.1,2.2-6.1,4.8-8.4
			c0.5-0.4,1-0.8,1.5-1.2c0,0,0.1-0.1,0.2-0.1c2.7-1.9,5.9-2.8,9.1-2.8l0,0c2.7,0,5.5,0.7,7.9,2c1.4,0.8,2.8,1.8,3.9,3
			c0.7,0.8,1.4,1.6,1.9,2.4c1.5,2.3,2.3,4.9,2.4,7.4C717.4,362.2,715.7,366.6,712.1,369.8z"/>
	</g>
	<path class="st9" d="M724,355.6l-6.9,2.3c-0.1-2.6-0.9-5.2-2.4-7.4c-0.5-0.8-1.2-1.6-1.9-2.4c-1.2-1.2-2.5-2.2-3.9-3
		c-2.4-1.3-5.2-2-7.9-2l0,0c-3.2,0-6.4,0.9-9.1,2.8c-0.1,0-0.1,0.1-0.2,0.1c-0.5,0.4-1,0.8-1.5,1.2c-2.6,2.3-4.2,5.3-4.8,8.4v0.1
		c-0.7,4,0.1,8.2,2.7,11.7l-6.9,2.3c-3-4.9-3.8-10.6-2.7-15.9c0.9-4.3,3.2-8.4,6.8-11.6c0.1-0.1,0.3-0.2,0.4-0.3
		c2-1.7,4.3-3.1,6.7-4c3.5-1.3,7.2-1.8,10.9-1.5h0.1c2.6,0.3,5.2,1,7.6,2.1c2.5,1.2,4.9,2.8,7,4.9c0.7,0.7,1.4,1.5,2,2.4
		C722.2,348.7,723.5,352.1,724,355.6z"/>
</g>
<polygon class="st6" points="644.7,393.7 596.6,409.4 594.1,402.4 642.2,386.7 "/>
<text transform="matrix(0.949 -0.3152 0.3152 0.949 48.8569 272.3435)" class="st27 st25 st28">{ }</text>
<rect x="61.1" y="302" transform="matrix(0.949 -0.3152 0.3152 0.949 -93.3069 38.8459)" class="st29" width="24.7" height="11.8"/>
<rect x="67.6" y="321.5" transform="matrix(0.949 -0.3152 0.3152 0.949 -99.1205 41.8882)" class="st29" width="24.7" height="11.8"/>
<rect x="74.1" y="341" transform="matrix(0.949 -0.3152 0.3152 0.949 -104.9341 44.9305)" class="st30" width="24.7" height="11.8"/>
<rect x="80.6" y="360.6" transform="matrix(0.949 -0.3152 0.3152 0.949 -110.7822 47.9795)" class="st30" width="24.7" height="11.8"/>
<rect x="87.1" y="380.1" transform="matrix(0.949 -0.3152 0.3152 0.949 -116.5958 51.0218)" class="st30" width="24.7" height="11.8"/>
<rect x="93.6" y="399.7" transform="matrix(0.949 -0.3152 0.3152 0.949 -122.4438 54.0707)" class="st30" width="24.7" height="11.8"/>
<rect x="100.1" y="419.2" transform="matrix(0.949 -0.3152 0.3152 0.949 -128.2574 57.1131)" class="st30" width="24.7" height="11.8"/>
<rect x="426.3" y="182.5" transform="matrix(0.949 -0.3152 0.3152 0.949 -45.6074 147.0852)" class="st9" width="11.3" height="64.1"/>
<rect x="414.9" y="215.2" transform="matrix(0.949 -0.3152 0.3152 0.949 -52.0319 144.5674)" class="st31" width="12.1" height="35.9"/>
<rect x="400.7" y="231.7" transform="matrix(0.949 -0.3152 0.3152 0.949 -56.1447 140.6383)" class="st32" width="12.1" height="24.4"/>
<g>
	<g>
		<line class="st10" x1="399.6" y1="248.3" x2="397.7" y2="249"/>
		<line class="st33" x1="394" y1="250.2" x2="381.2" y2="254.5"/>
		<polyline class="st10" points="379.3,255.1 377.4,255.7 378.1,257.6 		"/>
		<line class="st34" x1="379.4" y1="261.5" x2="394.3" y2="306.5"/>
		<polyline class="st10" points="395,308.4 395.6,310.3 397.5,309.7 		"/>
		<line class="st35" x1="401.6" y1="308.3" x2="415.9" y2="303.6"/>
		<line class="st10" x1="417.9" y1="302.9" x2="419.8" y2="302.3"/>
	</g>
</g>
<g>
	
		<rect x="422.9" y="293.1" transform="matrix(0.949 -0.3152 0.3152 0.949 -71.143 153.4795)" class="st2" width="32.1" height="7.2"/>
	
		<rect x="427.3" y="307.4" transform="matrix(0.949 -0.3152 0.3152 0.949 -75.681 154.0344)" class="st2" width="22.2" height="7.2"/>
	
		<rect x="431.4" y="319.1" transform="matrix(0.949 -0.3152 0.3152 0.949 -79.0076 156.8532)" class="st2" width="28.1" height="7.2"/>
	
		<rect x="464.2" y="311.8" transform="matrix(0.949 -0.3152 0.3152 0.949 -75.5819 163.433)" class="st7" width="6.6" height="7.2"/>
	
		<rect x="475.7" y="305.1" transform="matrix(0.949 -0.3152 0.3152 0.949 -72.4366 169.4907)" class="st7" width="24.2" height="7.2"/>
	
		<rect x="454.7" y="295.1" transform="matrix(0.949 -0.3152 0.3152 0.949 -69.9161 165.0711)" class="st7" width="41.4" height="7.2"/>
	
		<rect x="459.5" y="281" transform="matrix(0.949 -0.3152 0.3152 0.949 -65.4653 164.3996)" class="st7" width="32.1" height="7.2"/>
</g>
<line class="st36" x1="115.8" y1="251.5" x2="630" y2="79"/>
<line class="st36" x1="170.4" y1="586.6" x2="750.7" y2="392"/>
<rect x="505.8" y="145.3" transform="matrix(0.949 -0.3152 0.3152 0.949 -48.8512 187.9114)" class="st14" width="101.5" height="199.4"/>
<rect x="500.6" y="190.8" transform="matrix(0.949 -0.3152 0.3152 0.949 -33.9558 179.7287)" class="st2" width="76.2" height="8.1"/>
<rect x="506.9" y="211.9" transform="matrix(0.949 -0.3152 0.3152 0.949 -40.9441 178.7237)" class="st2" width="50.4" height="8.1"/>
<rect x="562.7" y="198.7" transform="matrix(0.949 -0.3152 0.3152 0.949 -34.7566 190.5809)" class="st7" width="18.3" height="8.1"/>
<rect x="540.1" y="220.3" transform="matrix(0.949 -0.3152 0.3152 0.949 -41.9821 189.1116)" class="st7" width="47.2" height="8.1"/>
<rect x="513.3" y="233.4" transform="matrix(0.949 -0.3152 0.3152 0.949 -48.1162 177.3784)" class="st2" width="22.1" height="8.1"/>
<rect x="518.5" y="247.5" transform="matrix(0.949 -0.3152 0.3152 0.949 -51.8298 182.6047)" class="st2" width="40.3" height="8.1"/>
<rect x="562.8" y="234.5" transform="matrix(0.949 -0.3152 0.3152 0.949 -45.7455 194.2316)" class="st7" width="29.7" height="8.1"/>
<rect x="544.7" y="255.4" transform="matrix(0.949 -0.3152 0.3152 0.949 -52.6351 193.4384)" class="st7" width="54.1" height="8.1"/>
<rect x="524.7" y="268.3" transform="matrix(0.949 -0.3152 0.3152 0.949 -58.6836 181.8344)" class="st2" width="16.3" height="8.1"/>
<rect x="529.9" y="282.7" transform="matrix(0.949 -0.3152 0.3152 0.949 -62.5386 186.7914)" class="st2" width="32.7" height="8.1"/>
<rect x="566" y="269.9" transform="matrix(0.949 -0.3152 0.3152 0.949 -56.5269 198.3717)" class="st7" width="38.1" height="8.1"/>
<g>
	<g>
		<path class="st7" d="M614.7,310.1l0.7,2.2l-6.9,5.6l-0.7-2.1l4.9-3.9l-6.2-0.2l-0.7-2.1L614.7,310.1z"/>
	</g>
	<g>
		<path class="st7" d="M591.2,314.6l0.7,2.1l-4.9,3.9l6.2,0.2l0.7,2.1l-8.9-0.4l-0.7-2.2L591.2,314.6z"/>
	</g>
	<g>
		<path class="st7" d="M598.7,305.6l2.5-0.8l-0.3,18.7l-2.5,0.8L598.7,305.6z"/>
	</g>
</g>
<g>
	<g>
		<path class="st7" d="M529.3,174.5l0.9,2.8l-9.1,7.4l-0.9-2.7l6.4-5l-8.1-0.2l-0.9-2.7L529.3,174.5z"/>
	</g>
	<g>
		<path class="st7" d="M508.9,176.8l0.9,2.7l-6.4,5.1l8.1,0.2l0.9,2.7l-11.7-0.5l-0.9-2.8L508.9,176.8z"/>
	</g>
</g>
<text transform="matrix(0.949 -0.3152 0.3152 0.949 472.4158 150.8008)" class="st37 st25 st38">HTML</text>
<rect x="483" y="328.7" transform="matrix(0.949 -0.3152 0.3152 0.949 -79.866 173.0519)" class="st9" width="24.2" height="9.5"/>
<rect x="488.2" y="344.4" transform="matrix(0.949 -0.3152 0.3152 0.949 -84.5498 175.4908)" class="st9" width="24.2" height="9.5"/>
<rect x="493.4" y="360.1" transform="matrix(0.949 -0.3152 0.3152 0.949 -89.2335 177.9297)" class="st9" width="24.2" height="9.5"/>
<rect x="498.6" y="375.8" transform="matrix(0.949 -0.3152 0.3152 0.949 -93.9173 180.3685)" class="st9" width="24.2" height="9.5"/>
<rect x="503.8" y="391.5" transform="matrix(0.949 -0.3152 0.3152 0.949 -98.601 182.8074)" class="st29" width="24.2" height="9.5"/>
<rect x="509.1" y="407.2" transform="matrix(0.949 -0.3152 0.3152 0.949 -103.2781 185.2807)" class="st29" width="24.2" height="9.5"/>
<rect x="514.3" y="422.9" transform="matrix(0.949 -0.3152 0.3152 0.949 -107.9619 187.7195)" class="st29" width="24.2" height="9.5"/>
</svg>
