<?xml version="1.0" encoding="utf-8"?>
<!-- Generator: Adobe Illustrator 25.0.0, SVG Export Plug-In . SVG Version: 6.00 Build 0)  -->
<svg version="1.1" id="cc774093-8b64-45c7-8077-699a43d4914b"
	 xmlns="http://www.w3.org/2000/svg" xmlns:xlink="http://www.w3.org/1999/xlink" x="0px" y="0px" viewBox="0 0 814 778.2"
	 style="enable-background:new 0 0 814 778.2;" xml:space="preserve">
<style type="text/css">
	.st0{fill:url(#SVGID_1_);}
	.st1{fill:#50CC76;}
	.st2{fill:url(#SVGID_2_);}
	.st3{fill:#69FF93;}
	.st4{fill:url(#SVGID_3_);}
	.st5{fill:#F5F5F5;}
	.st6{fill:#266AFB;}
	.st7{fill:url(#SVGID_4_);}
	.st8{fill:#FFFFFF;}
	.st9{fill:#E0E0E0;}
	.st10{fill:url(#SVGID_5_);}
	.st11{fill:#EEEEEE;}
	.st12{fill:url(#SVGID_6_);}
	.st13{fill:#7D97F4;}
	.st14{fill:#F46984;}
	.st15{fill:#E5284C;}
	.st16{fill:url(#SVGID_7_);}
	.st17{fill:#361D4F;}
	.st18{fill:url(#SVGID_8_);}
	.st19{fill:#DBDBDB;}
	.st20{fill:url(#SVGID_9_);}
	.st21{fill:#7E57D3;}
	.st22{fill:url(#SVGID_10_);}
	.st23{fill:url(#SVGID_11_);}
	.st24{fill:url(#SVGID_12_);}
	.st25{fill:url(#SVGID_13_);}
	.st26{fill:url(#SVGID_14_);}
	.st27{fill:#BDD0FB;}
	.st28{fill:url(#SVGID_15_);}
	.st29{fill:url(#SVGID_16_);}
	.st30{fill:#7B7D7B;}
	.st31{fill:#F2576E;}
	.st32{fill:#874447;}
	.st33{opacity:0.3;}
	.st34{fill:#755FF9;}
	.st35{fill:#1A2E35;}
	.st36{font-family:'Montserrat-Black';}
	.st37{font-size:21.5951px;}
</style>
<g>
	
		<linearGradient id="SVGID_1_" gradientUnits="userSpaceOnUse" x1="300.9821" y1="349.5002" x2="522.8204" y2="978.2707" gradientTransform="matrix(1 0 0 1 0 -244)">
		<stop  offset="0" style="stop-color:#DAE3FE"/>
		<stop  offset="1" style="stop-color:#E9EFFD"/>
	</linearGradient>
	<path class="st0" d="M709.5,241.7c-8.2-7.8-17-14.9-20.4-26.7c-2.9-10.1-1.1-21.4-3.1-31.8c-2.6-14-11.6-24.7-21.3-32.2
		c-20.4-15.6-45.2-20.2-69-18.2s-47,10-70.1,18c-35.5,12.4-71.1,23.2-105.1,41c-34,17.9-62.3,24.5-98.5,12.5
		c-41.8-13.9-83.7-52.4-127.9-44c-22.8,4.3-44.3,22.9-53.5,49.7c-3.9,11.4-5.8,24.1-11.7,34c-10.5,17.5-30.8,21.1-42.4,37.4
		c-9.9,13.9-11.6,34.8-7.9,52.9c3.4,17,11.4,30.3,17.2,45.9c4.6,12.4,12.5,23.8,15.9,36.7c3.7,14.1,0.3,29.4-3.1,43.6
		c-5.7,23.9-16.5,45.9-17,71.1c-0.5,26.4,7,51.4,21.6,70.4c6.2,8,23.4,8.1,31.4,9.6c23.2,4.3,46.5,6.9,69.8,9.5
		c56.8,6.2,115.7,15,172.6,11.7c21.2-1.3,42.3,2.4,63.5,2.1c20.2-0.2,40.5-3.2,60.8-4c43.2-1.8,86.8-2.1,129.2-14
		c12-3.4,23.7-7.6,35.5-12.1c20.6-7.8,42.8-17.9,53.8-41.2c10.9-23.2,7.5-52.5,3.8-79.1c-3.9-27.4-10.4-56.1-11.7-83.9
		c-1.1-23.2-8.2-47.6-6-71.1c2.4-21.9,16.1-46.1,8.1-68.3C720.7,253.1,715.3,247.3,709.5,241.7z"/>
	<path class="st1" d="M176.1,318.4c-7.1,31.1-40.2,213.8,148.7,271.9c0,0,56.9-115.3-143.7-273.4
		C179.3,315.6,176.5,316.4,176.1,318.4z"/>
	
		<linearGradient id="SVGID_2_" gradientUnits="userSpaceOnUse" x1="-616.0842" y1="706.597" x2="-496.7975" y2="706.597" gradientTransform="matrix(-1 0 0 1 -305.6162 -244)">
		<stop  offset="0" style="stop-color:#DAE3FE"/>
		<stop  offset="1" style="stop-color:#E9EFFD"/>
	</linearGradient>
	<path class="st2" d="M191.2,347.3c1.8,10.6,4.1,21.1,6.7,31.5c2.5,10.5,5.4,20.9,8.5,31.2c3.1,10.3,6.6,20.6,10.3,30.8
		c1,2.5,1.9,5.1,2.9,7.6l3,7.6c2.1,5,4.1,10.1,6.4,15c2.2,5,4.6,9.9,6.9,14.9l3.7,7.3c1.2,2.5,2.6,4.8,3.9,7.3
		c5.3,9.6,11,19.1,17.4,28.3l2.4,3.4l2.5,3.4l2.5,3.4l1.3,1.7l1.3,1.6l5.3,6.5l5.7,6.3c7.7,8.3,16.2,16.2,25.5,23.2
		c0.8,0.6,2,0.5,2.6-0.2c0.7-0.7,0.6-1.7-0.2-2.3l0,0l0,0c-9.2-6.8-17.5-14.4-25.2-22.6L279,547l-5.3-6.4l-1.3-1.6l-1.3-1.7
		l-2.5-3.3l-2.5-3.3l-2.4-3.4c-6.4-9-12.2-18.4-17.5-27.9c-1.3-2.4-2.7-4.8-3.9-7.2l-3.8-7.3c-2.4-4.9-4.8-9.8-7-14.7
		c-2.3-4.9-4.4-9.9-6.5-14.9l-3-7.5c-1-2.5-1.9-5-2.9-7.6c-3.8-10.1-7.3-20.3-10.5-30.6c-3.2-10.3-6.1-20.6-8.7-31.1
		c-2.6-10.4-5-20.9-6.9-31.4l0,0c-0.1-0.4-0.5-0.6-0.9-0.6C191.4,346.6,191.1,346.9,191.2,347.3z"/>
	<path class="st3" d="M138.9,492.4c7.1,20.2,52.6,136.1,159.2,110.8c0,0-12.1-84.4-157.4-113.2C139.4,489.8,138.4,491.1,138.9,492.4
		z"/>
	
		<linearGradient id="SVGID_3_" gradientUnits="userSpaceOnUse" x1="151.2102" y1="899.7605" x2="251.7504" y2="899.7605" gradientTransform="matrix(-0.9702 0.2423 0.2423 0.9702 196.8453 -367.9482)">
		<stop  offset="0" style="stop-color:#DAE3FE"/>
		<stop  offset="1" style="stop-color:#E9EFFD"/>
	</linearGradient>
	<path class="st4" d="M155.3,504.5c4.2,5.3,8.6,10.4,13.1,15.5c4.5,5,9.1,10,13.8,14.9s9.5,9.6,14.5,14.2c4.9,4.6,10,9.2,15.1,13.5
		c5.2,4.4,10.4,8.6,15.9,12.7c5.5,4,11,7.9,16.8,11.5c11.5,7.2,23.8,13.4,36.9,17.5c0.8,0.3,1.7-0.2,1.9-1c0.3-0.8-0.2-1.7-1-1.9
		l0,0l0,0c-12.8-3.8-24.9-9.8-36.3-16.8c-5.8-3.5-11.3-7.3-16.7-11.2c-5.5-3.9-10.7-8.1-15.9-12.4c-5.2-4.3-10.3-8.7-15.2-13.3
		c-5-4.6-9.8-9.2-14.6-14c-4.7-4.8-9.4-9.7-13.9-14.7s-9-10.1-13.3-15.3l0,0c-0.2-0.3-0.6-0.3-0.9-0.1
		C155.1,503.8,155.1,504.2,155.3,504.5z"/>
	<rect x="263.2" y="342.6" class="st5" width="55" height="24.9"/>
	<rect x="270.6" y="383.9" class="st5" width="55" height="24.9"/>
	<rect x="359.5" y="308" class="st5" width="55" height="24.9"/>
	<rect x="359.5" y="346.7" class="st5" width="55" height="24.9"/>
	<rect x="258.7" y="572.8" class="st6" width="178.3" height="50.7"/>
	
		<linearGradient id="SVGID_4_" gradientUnits="userSpaceOnUse" x1="387.25" y1="-109.8" x2="387.25" y2="307" gradientTransform="matrix(1 0 0 -1 0 536)">
		<stop  offset="1.000000e-02" style="stop-color:#808080;stop-opacity:0.25"/>
		<stop  offset="0.54" style="stop-color:#808080;stop-opacity:0.12"/>
		<stop  offset="1" style="stop-color:#808080;stop-opacity:0.1"/>
	</linearGradient>
	<path class="st7" d="M534.6,645.8H239.8c-5.2,0-9.4-4.2-9.4-9.4V285.2c0-2.3,0.9-4.6,2.4-6.3l42.2-46.8c1.8-2,4.3-3.1,7-3.1h252.7
		c5.2,0,9.4,4.2,9.4,9.4v398C544,641.6,539.8,645.8,534.6,645.8z"/>
	<polygon class="st8" points="539.2,626.1 235.9,626.1 235.9,275.7 281.7,225.2 539.2,225.2 	"/>
	<rect x="327.2" y="346.7" class="st9" width="173.6" height="24.9"/>
	
		<linearGradient id="SVGID_5_" gradientUnits="userSpaceOnUse" x1="261.15" y1="246.7205" x2="261.15" y2="302.1124" gradientTransform="matrix(1 0 0 -1 0 536)">
		<stop  offset="0" style="stop-color:#B3B3B3;stop-opacity:0.25"/>
		<stop  offset="0.54" style="stop-color:#B3B3B3;stop-opacity:0.1"/>
		<stop  offset="1" style="stop-color:#B3B3B3;stop-opacity:5.000000e-02"/>
	</linearGradient>
	<path class="st10" d="M286.4,237.2v48.7c0,1.8-1.5,3.3-3.3,3.3h-43.9c-1.8,0-3.3-1.5-3.3-3.3v-0.2c0-0.8,0.3-1.6,0.9-2.2l43.9-48.5
		c0.6-0.7,1.5-1.1,2.5-1.1l0,0C285,233.9,286.4,235.4,286.4,237.2z"/>
	<rect x="325.2" y="383.9" class="st9" width="175.6" height="24.9"/>
	<rect x="320.3" y="421.1" class="st9" width="180.5" height="24.9"/>
	<rect x="318.2" y="458.1" class="st9" width="182.6" height="24.9"/>
	<path class="st6" d="M560.6,239.8l-10.3,24.8c-1.4,3.4-4.2,6-7.7,7.1c-8.7,2.9-27,6.1-52-4.6c-25.4-10.8-32.8-25.9-34.9-33.7
		c-0.8-2.8-0.6-5.8,0.5-8.6l10.7-26.4L560.6,239.8z"/>
	<polygon class="st11" points="235.8,284.4 281.6,233.9 281.6,284.4 	"/>
	
		<linearGradient id="SVGID_6_" gradientUnits="userSpaceOnUse" x1="563.0177" y1="113.288" x2="558.6587" y2="228.0802" gradientTransform="matrix(0.7873 0.6166 -0.6166 0.7873 195.1976 -286.4375)">
		<stop  offset="0.7106" style="stop-color:#266AFB"/>
		<stop  offset="1" style="stop-color:#09529F"/>
	</linearGradient>
	<path class="st12" d="M536.4,178.5l45.9,62.6c2.4,3.2,0.2,7.8-3.8,8c-19.5,0.8-64.2,3.3-84.8,8.9c-2.2,0.6-4.5-0.4-5.7-2.4
		l-40.2-71.3c-1.8-3.2,0.4-7.2,4.1-7.4c19.5-1.1,68.8-3.5,81.7-0.3C534.7,176.9,535.7,177.6,536.4,178.5z"/>
	<path class="st13" d="M570.1,240.3l-53.4,6.1l-13.3,1.5l-3.3,0.4l-1.7,0.2c-0.5,0.1-1,0-1.6,0c-2.1-0.2-4-1.4-5.2-3.2l-14.8-22.4
		c-0.1-0.2-0.4-0.2-0.5-0.1c-0.2,0.1-0.2,0.4-0.1,0.5l14.6,22.5c1.3,2,3.5,3.4,5.9,3.7c0.6,0.1,1.2,0.1,1.8,0l1.7-0.2l3.3-0.4
		l13.4-1.4l53.4-5.7c0.4,0,0.7-0.4,0.7-0.9S570.6,240.3,570.1,240.3L570.1,240.3z"/>
	<rect x="578.2" y="565.6" class="st14" width="3.7" height="40.1"/>
	<path class="st14" d="M596.3,606.5h-32.5l0,0c0-1.3,1.1-2.4,2.4-2.4h27.6C595.2,604.1,596.3,605.1,596.3,606.5L596.3,606.5z"/>
	<path class="st15" d="M601.1,564.2c0,2.2-1.8,4-4,4h-32.9c-2.2,0-4-1.8-4-4v-3.6c0-2.2,1.8-4,4-4h32.9c2.2,0,4,1.8,4,4V564.2z"/>
	
		<linearGradient id="SVGID_7_" gradientUnits="userSpaceOnUse" x1="543.3568" y1="808.0518" x2="579.4076" y2="845.58" gradientTransform="matrix(1 0 0 1 0 -244)">
		<stop  offset="0" style="stop-color:#FF928E"/>
		<stop  offset="1" style="stop-color:#FEB3B1"/>
	</linearGradient>
	<path class="st16" d="M552.7,538.9c0,0-5.5,0.9-11.7,5c-1,0.7-1.5,1.8-1.4,3c0.7,5.9,3.8,24.9,13.8,43.5c0.5,1,0.7,2.1,0.4,3.2
		l-1.7,8.1l-3.2,3h8.3l5.6-15l-2.4-0.8c-1.8-0.6-3.1-2.3-3.1-4.2l-0.3-16.1c0.2-7.2-4.4-12.1-4.4-12.1l13.3-0.6L552.7,538.9z"/>
	<path class="st17" d="M545.7,606.1c-0.8,1,8.2,2.3,12.7,0.1c0,0,6.3-10.9,6.3-16.5c0,0-0.5-1.1-4.2-0.9c0,0-2.1,12.9-4.3,14.3
		c-2.2,1.4-6.2,0.1-6.2,0.1S546.8,604.7,545.7,606.1z"/>
	
		<linearGradient id="SVGID_8_" gradientUnits="userSpaceOnUse" x1="514.6666" y1="848.2834" x2="548.6489" y2="801.8903" gradientTransform="matrix(1 0 0 1 0 -244)">
		<stop  offset="0" style="stop-color:#FF928E"/>
		<stop  offset="1" style="stop-color:#FEB3B1"/>
	</linearGradient>
	<path class="st18" d="M564.3,556.6c-0.1-0.1-14.3-1.7-14.3-1.7s0.5,4.3-1,10.3s-22.4,31.9-22.4,31.9l2.2,7
		c-6.8,2.4-13.5,2.7-20.1,1.2l13.6-8.2c0,0,12.7-43.4,20.6-51.2l14.3-5L564.3,556.6z"/>
	<path class="st19" d="M596.3,531.3c0,0,8.2,12.2,8.9,17.8s-2.3,7.8-10.9,8.2c-8.6,0.4-31.7,0.4-31.7,0.4l-19.7-16.8
		c0,0,14.3-5.1,18.1-6.6C564.7,532.9,596.3,531.3,596.3,531.3z"/>
	<path class="st17" d="M527.9,601.7c0,0,2.4,2.3,0.8,4.8c0,0-18.7,3.3-23.8,1.8c0,0,1.1-2.4,6.8-5.2l-0.4,0.3
		c-0.5,0.4-0.2,1.3,0.5,1.2C515.4,604.5,523.2,603.9,527.9,601.7z"/>
	
		<linearGradient id="SVGID_9_" gradientUnits="userSpaceOnUse" x1="-1637.9916" y1="694.4052" x2="-1704.6438" y2="774.2643" gradientTransform="matrix(-1 0 0 1 -1087.386 -244)">
		<stop  offset="0" style="stop-color:#000000"/>
		<stop  offset="0.5547" style="stop-color:#000000"/>
		<stop  offset="1" style="stop-color:#969696"/>
	</linearGradient>
	<path class="st20" d="M563,473.2c0,1.1,10.1,42.8,10.1,42.8l28.9,8.5c5.6,1.6,11.6-0.6,14.6-5.5l0,0c7.7-12.2,4-28.3-8.2-36
		l-4.1-2.6c-8.7-5.5-16.3-12.7-22.1-21.1l-1.5-2.2L563,473.2z"/>
	<path class="st21" d="M574,529.7c0,0-9.6-9.1-14.3-15.2c-2.5-3.3-3.3-7.6-2.2-11.5c2.2-7.3,6-14.8,6.3-15.9
		c0.5-1.8,11.3-1.7,11.3-1.7s21.1,13.7,29.4,37l-9.3,2.9c0,0-5.5-9.3-11-15.1c0,0,9.4,12.5,9.8,17.6L574,529.7z"/>
	
		<linearGradient id="SVGID_10_" gradientUnits="userSpaceOnUse" x1="563.8453" y1="709.4572" x2="572.4147" y2="738.1204" gradientTransform="matrix(1 0 0 1 0 -244)">
		<stop  offset="0" style="stop-color:#FF928E"/>
		<stop  offset="1" style="stop-color:#FEB3B1"/>
	</linearGradient>
	<path class="st22" d="M562.6,477.1c0.1,0.4,2.9,9.7,3.1,9.9c0.2,0.2,6.1,0.5,8.9-1.4l-4.7-9.9L562.6,477.1z"/>
	
		<linearGradient id="SVGID_11_" gradientUnits="userSpaceOnUse" x1="-170.7727" y1="574.9097" x2="-187.6162" y2="594.7081" gradientTransform="matrix(1 0 0 1 855.4928 -244)">
		<stop  offset="0" style="stop-color:#FF928E"/>
		<stop  offset="1" style="stop-color:#FEB3B1"/>
	</linearGradient>
	<path class="st23" d="M567.2,457.6c0,0-5.1,2.1-8.5,9.5c-3.4,7.3-0.9,10.7,2.4,11.2c3.2,0.5,8.1,0.4,13.2-4.3
		C579.3,469.1,573.8,455,567.2,457.6z"/>
	
		<linearGradient id="SVGID_12_" gradientUnits="userSpaceOnUse" x1="-1645.8409" y1="687.8538" x2="-1712.4934" y2="767.713" gradientTransform="matrix(-1 0 0 1 -1087.386 -244)">
		<stop  offset="0" style="stop-color:#000000"/>
		<stop  offset="0.7335" style="stop-color:#000000"/>
		<stop  offset="1" style="stop-color:#969696"/>
	</linearGradient>
	<path class="st24" d="M570.8,469.9c0,0,3.8-10.7-5.7-10.8l-2.2,1.6c0,0-3.5-5.9,2.2-8.8c5.7-2.8,14.2-0.3,16.7,7.4
		c2.4,7.7,1,12.7-3,16.3c-4,3.7-5.7-0.5-5.7-0.5s2.2-3.4,1.3-5.3c-0.9-1.8-3,0.4-3,0.4L570.8,469.9z"/>
	
		<linearGradient id="SVGID_13_" gradientUnits="userSpaceOnUse" x1="-166.0688" y1="578.9114" x2="-182.9122" y2="598.7097" gradientTransform="matrix(1 0 0 1 855.4928 -244)">
		<stop  offset="0" style="stop-color:#FF928E"/>
		<stop  offset="1" style="stop-color:#FEB3B1"/>
	</linearGradient>
	<path class="st25" d="M571.8,471.1c0,0,1.9-5.5,4.5-3.3s-2.1,5.1-3.9,6L571.8,471.1z"/>
	
		<linearGradient id="SVGID_14_" gradientUnits="userSpaceOnUse" x1="626.6411" y1="692.0397" x2="598.2703" y2="742.5751" gradientTransform="matrix(1 0 0 1 0 -244)">
		<stop  offset="0" style="stop-color:#FF928E"/>
		<stop  offset="1" style="stop-color:#FEB3B1"/>
	</linearGradient>
	<path class="st26" d="M554.5,530.4l7-6.8l9.7,4.1c0,0,9.7,1.5,15.2,0s5.5-1.5,5.5-1.5l12.5-3.9l2,5.6c0.5,1.4,0,3-1.2,3.8
		c-1.1,0.8-2.4,1.6-3.2,2c-1.7,0.7-40.7-0.5-40.7-0.5L554.5,530.4z"/>
	<path class="st27" d="M612.2,513.6L612.2,513.6c3.7-2.1,4-6.9,4-8.9c0-3.8-1.1-7.6-3-11c-3.4-6-9.2-10-14.9-14l-1.2-0.8
		c-5.7-4-12-8.8-14.6-15.7c0-0.1-0.2-0.2-0.3-0.1c-0.1,0-0.2,0.2-0.1,0.3c2.6,7.1,9,11.9,14.7,15.9l1.2,0.8
		c5.6,3.9,11.4,7.9,14.8,13.8c1.9,3.3,2.9,7,2.9,10.8c0,1.9-0.3,6.5-3.7,8.5c-0.1,0.1-0.1,0.2-0.1,0.3
		C612.1,513.6,612.1,513.6,612.2,513.6z"/>
	<path class="st27" d="M609.9,507.4c0.1,0,0.2-0.1,0.2-0.2c0.8-3.9,0.7-7.4-0.3-10.4c-1.8-5.4-6.6-9.3-10.5-12.1
		c-0.8-0.6-1.6-1.1-2.4-1.7c-3.6-2.5-7.4-5.1-10.1-8.5c-0.1-0.1-0.2-0.1-0.3,0s-0.1,0.2,0,0.3c2.7,3.5,6.5,6.1,10.1,8.6
		c0.8,0.6,1.6,1.1,2.4,1.7c3.9,2.8,8.6,6.6,10.4,11.9c1,2.9,1.1,6.4,0.3,10.2C609.6,507.3,609.7,507.4,609.9,507.4
		C609.8,507.4,609.8,507.4,609.9,507.4z"/>
	
		<linearGradient id="SVGID_15_" gradientUnits="userSpaceOnUse" x1="561.0114" y1="763.3408" x2="559.5338" y2="808.8478" gradientTransform="matrix(1 0 0 1 0 -244)">
		<stop  offset="0" style="stop-color:#09005D"/>
		<stop  offset="1" style="stop-color:#1A0F91"/>
	</linearGradient>
	<path class="st28" d="M581.1,533.6L581.1,533.6h-40.9c-1,0-1.8-0.8-1.8-1.8s0.8-1.8,1.8-1.8H581c1,0,1.8,0.8,1.8,1.8
		C582.9,532.8,582.1,533.5,581.1,533.6z"/>
	
		<linearGradient id="SVGID_16_" gradientUnits="userSpaceOnUse" x1="519.9215" y1="777.5651" x2="537.6513" y2="746.5378" gradientTransform="matrix(1 0 0 1 0 -244)">
		<stop  offset="0" style="stop-color:#969696"/>
		<stop  offset="1" style="stop-color:#FFFFFF"/>
	</linearGradient>
	<path class="st29" d="M503.5,496.5h34c2.5,0,4.8,1.4,5.9,3.7l15.7,33.3h-42.3c-1.6,0-3.1-1-3.7-2.5L501,500.2
		C500.3,498.5,501.6,496.5,503.5,496.5z"/>
	<path class="st30" d="M527.5,513.6c0.7,2.3,0.2,4.5-1.2,5s-3.1-1-3.9-3.3c-0.7-2.3-0.2-4.5,1.2-5S526.7,511.3,527.5,513.6z"/>
	<g>
		<path class="st31" d="M475.7,614c-0.2,0-0.4,0-0.6-0.1c-0.8-0.3-1.1-1.2-0.8-2l31.4-74.6c0.3-0.8,1.2-1.1,2-0.8s1.1,1.2,0.8,2
			l-31.4,74.6C476.9,613.7,476.3,614,475.7,614z"/>
		<path class="st31" d="M511.1,614c-0.6,0-1.1-0.3-1.4-0.9l-31.4-74.6c-0.3-0.8,0-1.7,0.8-2s1.6,0,2,0.8l31.4,74.6
			c0.3,0.8,0,1.7-0.8,2C511.5,614,511.3,614,511.1,614z"/>
		<path class="st31" d="M599.2,614c-0.2,0-0.4,0-0.6-0.1c-0.8-0.3-1.1-1.2-0.8-2l31.4-74.6c0.3-0.8,1.2-1.1,2-0.8s1.1,1.2,0.8,2
			l-31.4,74.6C600.3,613.7,599.8,614,599.2,614z"/>
		<path class="st31" d="M634.5,614c-0.6,0-1.1-0.3-1.4-0.9l-31.4-74.6c-0.3-0.8,0-1.7,0.8-2s1.6,0,2,0.8l31.4,74.6
			c0.3,0.8,0,1.7-0.8,2C634.9,614,634.7,614,634.5,614z"/>
	</g>
	<path class="st32" d="M638.2,535.1c0.1-0.5,0-0.9-0.4-1.3s-0.8-0.6-1.3-0.6H466.2c-0.7,0-1.3,0.3-1.6,0.8c-0.4,0.5-0.4,1.2-0.1,1.7
		l1.8,3.7c0.4,0.9,1.3,1.4,2.3,1.4h166.8c0.9,0,1.7-0.6,1.9-1.5L638.2,535.1z"/>
	<g class="st33">
		<path d="M272,442.7l-12.6,48.7c-0.3,1,0.9,1.8,1.9,1.2l14.7-9.4c0.6-0.4,1.4-0.2,1.8,0.4l8.1,14.2c0.5,1,2.1,0.7,2.3-0.4l10.7-52
			L272,442.7z"/>
	</g>
	<g class="st33">
		<path d="M300.1,445.4l18.5,46.4c0.4,1,1.9,1,2.3,0l6.7-15.5c0.3-0.6,1.1-0.9,1.7-0.6l15.2,7.3c1,0.5,2.2-0.5,1.7-1.5l-22-48.1
			L300.1,445.4z"/>
	</g>
	<g>
		<polygon class="st34" points="285.7,358.8 291.6,352.9 298,358.1 305.2,353.7 310,360.3 318.2,357.8 321.1,365.3 329.6,364.7 
			330.4,372.7 338.7,374.2 337.4,382.1 345.1,385.5 341.7,393 348.2,398.1 343,404.5 347.9,411 341.2,416.1 344.2,423.5 
			336.4,426.9 337.3,434.9 328.9,436.3 327.7,444.3 319.3,443.8 316,451.2 308,448.7 302.9,455.2 295.9,450.9 289.2,456 
			283.6,450.2 275.8,453.6 271.9,446.5 263.6,448.1 261.7,440.3 253.2,439.8 253.4,431.8 245.4,429.3 247.7,421.6 240.6,417.3 
			244.9,410.3 239.2,404.4 245.2,398.6 241.2,391.6 248.5,387.3 246.5,379.6 254.7,377.1 254.8,369.1 263.3,368.6 265.6,360.8 
			273.9,362.4 278.1,355.3 		"/>
	</g>
	<g>
		
			<ellipse transform="matrix(0.9844 -0.176 0.176 0.9844 -66.6398 58.0429)" class="st8" cx="293.9" cy="404.7" rx="38.6" ry="36.3"/>
	</g>
	<g>
		<path class="st34" d="M300.6,394.7l10.4-0.4c1.7-0.1,2.7,1.8,1.7,3.1l-6.2,8.1c-0.4,0.5-0.5,1.2-0.3,1.8l3.4,9.3
			c0.6,1.5-1,3-2.6,2.6l-9.9-2.9c-0.6-0.2-1.4-0.1-1.9,0.3l-8.3,6.1c-1.4,1-3.3,0.1-3.3-1.5v-9.9c0-0.6-0.3-1.2-0.9-1.6l-8.6-5.5
			c-1.4-0.9-1.1-3,0.5-3.5l9.9-3.2c0.6-0.2,1.2-0.7,1.4-1.3l3-9.5c0.5-1.6,2.7-1.9,3.7-0.7l6.1,7.9
			C299.3,394.5,300,394.8,300.6,394.7z"/>
	</g>
	<g>
		<g>
			<path class="st34" d="M334.2,584.4c0,0,0-0.1,0-0.4c0-0.3-0.1-0.7-0.1-1.3c0-0.3,0-0.6-0.1-0.9c0-0.3-0.1-0.7-0.2-1.1
				c-0.1-0.8-0.3-1.7-0.6-2.8c-0.5-2.1-1.4-4.5-3-7.1c-1.5-2.6-3.8-5.3-6.8-7.5c-3-2.3-6.8-4.2-11.2-5c-4.4-0.7-9.3-0.6-14,1.2
				c-1.2,0.4-2.3,1-3.5,1.5c-1.1,0.7-2.2,1.3-3.3,2.1c-1.1,0.7-2,1.7-3,2.6c-0.9,1-1.8,2-2.6,3.1c-1.6,2.2-3,4.6-3.8,7.3
				c-0.9,2.7-1.3,5.5-1.4,8.4c0,2.9,0.5,5.7,1.4,8.4c0.8,2.7,2.2,5.1,3.8,7.3c0.8,1.1,1.7,2.1,2.6,3.1c1,0.9,1.9,1.8,3,2.6
				c1,0.8,2.2,1.4,3.3,2.1c1.2,0.6,2.3,1.1,3.5,1.5c4.7,1.8,9.6,1.9,14,1.2c4.4-0.8,8.2-2.7,11.2-5s5.2-5,6.8-7.5
				c1.5-2.6,2.5-5,3-7.1c0.3-1,0.4-2,0.6-2.8c0.1-0.4,0.1-0.8,0.2-1.1c0-0.3,0-0.7,0.1-0.9c0-0.5,0.1-1,0.1-1.3
				C334.1,584.6,334.2,584.4,334.2,584.4s0,0.1,0,0.4c0,0.3,0,0.7,0,1.3c0,0.3,0,0.6,0,0.9c0,0.3-0.1,0.7-0.1,1.1
				c-0.1,0.8-0.2,1.8-0.5,2.8c-0.4,2.1-1.4,4.6-2.9,7.2c-1.5,2.6-3.8,5.4-6.8,7.7s-6.9,4.3-11.3,5.1s-9.4,0.7-14.2-1.1
				c-1.2-0.4-2.4-1-3.5-1.5c-1.1-0.7-2.3-1.3-3.3-2.1c-1.1-0.8-2.1-1.7-3.1-2.6c-0.9-1-1.9-2-2.7-3.1c-1.6-2.2-3-4.7-3.9-7.5
				c-0.9-2.7-1.4-5.6-1.4-8.5s0.5-5.8,1.4-8.5s2.3-5.2,3.9-7.5c0.8-1.1,1.7-2.1,2.7-3.1c1-0.9,2-1.9,3.1-2.6c1-0.8,2.2-1.5,3.3-2.1
				c1.2-0.6,2.3-1.2,3.5-1.5c4.8-1.8,9.8-1.9,14.2-1.1c4.5,0.8,8.3,2.8,11.3,5.1s5.3,5.1,6.8,7.7c1.5,2.6,2.5,5.1,2.9,7.2
				c0.3,1,0.4,2,0.5,2.8c0.1,0.4,0.1,0.8,0.1,1.1s0,0.7,0,0.9c0,0.5,0,1,0,1.3C334.2,584.3,334.2,584.4,334.2,584.4z"/>
		</g>
	</g>
	<g>
		<ellipse class="st34" cx="306.9" cy="584.1" rx="16.8" ry="16.8"/>
	</g>
	<g>
		<path class="st35" d="M345.7,569.6c0,0-0.2,0.1-0.7,0.4c-0.5,0.3-1.2,0.6-2.2,1.1c-1.9,1-4.7,2.5-8.3,4.3c-3.6,1.9-8,4.1-13.1,6.8
			c-1.3,0.6-2.7,1.2-4.3,1.4c-1.5,0.2-3.3-0.3-4.5-1.4c-0.6-0.6-1.1-1.3-1.3-2.2c-0.2-0.8-0.1-1.9,0.6-2.5c0.6-0.7,1.5-1.1,2.4-1.2
			c0.9-0.1,2,0.4,2.4,1.3l0,0l0,0c0.1,2.8-1,5.6-2.9,7.9c-1.9,2.3-4.8,3.9-8,4c-3.1,0.2-6.5-0.9-8.9-3.2c-1.2-1.1-2.2-2.6-2.6-4.3
			c-0.1-0.9-0.1-1.8,0.3-2.6s1.1-1.5,1.9-1.8c0.9-0.4,1.9-0.2,2.7,0.4c0.8,0.6,1.2,1.4,1.5,2.2c0.3,0.9,0.4,1.8,0.4,2.7
			c0,0.4,0,0.9,0,1.3c0,0.4-0.1,0.9-0.2,1.3c-0.6,3.6-2.7,6.9-5.6,9.2s-6.8,3.7-10.6,3c-3.8-0.6-7.3-2.8-9.7-5.9
			c-1.4-1.8-2.4-3.8-2.8-6s-0.4-4.5,0.5-6.5c0.4-1,1.2-1.9,2.1-2.5c1-0.6,2.1-0.8,3.2-0.6s2.1,1.1,2.6,2c0.5,1,0.8,2,1.1,3
			c0.9,4.1,0.7,8.4-0.7,12.2c-1.4,3.8-4,7.1-7.3,9c-3.3,2-7.2,2.8-10.8,2.4c-1.8-0.2-3.6-0.8-5.1-1.7c-1.6-0.9-2.9-2-4-3.4
			c-2.2-2.7-3.4-6-3.3-9.2c0-1.6,0.4-3.2,1-4.6c0.6-1.4,1.6-2.7,3.1-3.2c0.7-0.2,1.5-0.3,2.2-0.1s1.3,0.6,1.8,1.1
			c1,1,1.7,2.2,2.1,3.5c0.4,1.2,0.7,2.5,0.7,3.8c0,0.6,0,1.2,0,1.8s0,1.2-0.1,1.8c-0.4,4.6-1.9,8.4-3.4,11.2
			c-1.5,2.9-3.1,4.8-4.3,6.1c-0.6,0.6-1,1.1-1.4,1.4c-0.3,0.3-0.5,0.4-0.5,0.4s0.1-0.2,0.5-0.5c0.3-0.3,0.8-0.8,1.3-1.4
			c1.1-1.3,2.7-3.2,4.2-6.1c1.5-2.8,2.9-6.6,3.3-11.2c0.1-0.6,0.1-1.1,0.1-1.7c0-0.6,0-1.2,0-1.8c0-1.2-0.2-2.5-0.7-3.7
			c-0.4-1.2-1.1-2.4-2-3.3c-0.5-0.4-1.1-0.8-1.7-1s-1.3-0.1-2,0.1c-1.3,0.4-2.3,1.7-2.9,3c-0.6,1.4-0.9,2.9-0.9,4.4
			c0,3.1,1.1,6.3,3.2,8.9c1.1,1.3,2.4,2.4,3.9,3.3c1.5,0.8,3.2,1.4,5,1.6c3.5,0.4,7.3-0.4,10.5-2.3c3.2-1.9,5.8-5.1,7.1-8.8
			c1.4-3.7,1.6-7.9,0.7-11.9c-0.2-1-0.5-2-1-2.9s-1.3-1.6-2.2-1.8c-1-0.2-2,0-2.9,0.6c-0.9,0.5-1.5,1.3-1.9,2.3
			c-0.8,1.9-0.8,4.1-0.5,6.2c0.4,2.1,1.4,4.1,2.7,5.8c2.3,3,5.7,5.2,9.4,5.7c3.7,0.6,7.4-0.7,10.2-2.9c2.8-2.2,4.8-5.5,5.4-8.9
			c0.1-0.4,0.1-0.9,0.2-1.3c0-0.4,0.1-0.9,0-1.3c0-0.9-0.1-1.7-0.4-2.5s-0.7-1.5-1.3-2c-0.6-0.5-1.5-0.6-2.2-0.3s-1.3,0.9-1.7,1.6
			c-0.4,0.7-0.4,1.5-0.3,2.3c0.3,1.6,1.3,3,2.4,4c2.3,2.2,5.5,3.3,8.5,3.1c3-0.1,5.8-1.6,7.7-3.8c1.9-2.2,2.9-4.9,2.8-7.6v0.1
			c-0.3-0.8-1.1-1.2-2-1.1c-0.8,0.1-1.6,0.4-2.1,1c-0.6,0.6-0.7,1.4-0.5,2.2s0.6,1.4,1.2,2c1.2,1,2.8,1.5,4.2,1.3
			c1.5-0.1,2.9-0.7,4.2-1.3c5.1-2.6,9.5-4.8,13.1-6.7c3.6-1.8,6.4-3.2,8.3-4.2c0.9-0.5,1.7-0.8,2.2-1.1
			C345.4,569.7,345.7,569.6,345.7,569.6z"/>
	</g>
	<rect x="246.7" y="524.6" class="st9" width="79.5" height="24.9"/>
	<text transform="matrix(1 0 0 1 300.1242 276.8802)" class="st30 st36 st37">CERTIFICATION</text>
	<path class="st6" d="M513.8,209.9c0,0-46.9-4.8-52.8-2.1c-5.9,2.6-17.2,27-17.2,27c-18.6,13.5-34.1,31.8-33.5,48.3
		c0,0,28.2-14.8,31.2-28.1c3-13.2,4.3-18.6,4.3-18.6s13.1-25.1,16.9-27.2C462.6,209.2,515.5,213.3,513.8,209.9z"/>
	<path class="st27" d="M440,244.2v0.1v0.1v0.3v0.6c0,0.4-0.1,0.8-0.1,1.2l-0.2,1.2c-0.1,0.4-0.2,0.8-0.3,1.2
		c-0.1,0.4-0.2,0.8-0.3,1.2c-0.1,0.4-0.2,0.8-0.4,1.1l-0.5,1.1c-0.2,0.4-0.3,0.8-0.5,1.1l-0.5,1.1c-0.2,0.4-0.4,0.7-0.6,1.1
		c-0.4,0.7-0.8,1.4-1.3,2.1l-1.4,2c-0.1,0.2-0.2,0.3-0.4,0.5l-0.4,0.5l-0.8,0.9c-1,1.3-2.2,2.4-3.3,3.6c-0.3,0.3-0.6,0.6-0.9,0.9
		l-0.9,0.8c-0.6,0.6-1.2,1.1-1.8,1.7c-1.3,1-2.5,2.1-3.8,3.1l-4,2.9l0,0c-0.1,0.1-0.1,0.3-0.1,0.4c0.1,0.1,0.3,0.1,0.4,0.1l4.1-2.8
		c1.3-1,2.6-2,3.9-3c0.6-0.5,1.2-1.1,1.9-1.6l0.9-0.8c0.3-0.3,0.6-0.5,0.9-0.9c1.2-1.2,2.4-2.3,3.4-3.6l0.8-0.9l0.4-0.5
		c0.1-0.2,0.3-0.3,0.4-0.5l1.5-2c0.5-0.7,0.9-1.4,1.4-2.1c0.2-0.3,0.4-0.7,0.6-1.1l0.6-1.1c0.2-0.4,0.4-0.8,0.5-1.1l0.5-1.2
		c0.2-0.4,0.3-0.8,0.4-1.2s0.3-0.8,0.4-1.2s0.2-0.8,0.3-1.2l0.2-1.3c0-0.4,0.1-0.9,0.1-1.3V245v-0.3v-0.2v-0.2
		c0-0.4-0.4-0.8-0.8-0.7C440.3,243.3,439.9,243.7,440,244.2C440,244.1,440,244.1,440,244.2L440,244.2z"/>
	<path class="st27" d="M434.1,247.8c-0.3-0.2-0.8-0.1-1,0.2l-0.2,0.2l-1,1.2l-1.1,1.4l-2.2,2.7l-4.4,5.5l-8.9,10.9
		c-0.2,0.2-0.1,0.5,0.1,0.6s0.4,0.1,0.6-0.1l9.2-10.7l4.6-5.3l2.3-2.7l1.1-1.4l0.6-0.7l0.3-0.3c0.1-0.2,0.2-0.3,0.4-0.5
		C434.6,248.5,434.5,248,434.1,247.8z"/>
</g>
</svg>
